G04 #@! TF.GenerationSoftware,KiCad,Pcbnew,5.1.5+dfsg1-2build2*
G04 #@! TF.CreationDate,2020-11-20T08:54:09-05:00*
G04 #@! TF.ProjectId,portb_lcd_mod,706f7274-625f-46c6-9364-5f6d6f642e6b,rev?*
G04 #@! TF.SameCoordinates,Original*
G04 #@! TF.FileFunction,Legend,Top*
G04 #@! TF.FilePolarity,Positive*
%FSLAX46Y46*%
G04 Gerber Fmt 4.6, Leading zero omitted, Abs format (unit mm)*
G04 Created by KiCad (PCBNEW 5.1.5+dfsg1-2build2) date 2020-11-20 08:54:09*
%MOMM*%
%LPD*%
G04 APERTURE LIST*
%ADD10C,0.120000*%
%ADD11C,0.150000*%
G04 APERTURE END LIST*
D10*
X131078000Y-108712000D02*
G75*
G03X131078000Y-108712000I-6100000J0D01*
G01*
X121920000Y-101330000D02*
X121920000Y-98670000D01*
X121920000Y-101330000D02*
X160080000Y-101330000D01*
X160080000Y-101330000D02*
X160080000Y-98670000D01*
X121920000Y-98670000D02*
X160080000Y-98670000D01*
X119320000Y-98670000D02*
X120650000Y-98670000D01*
X119320000Y-100000000D02*
X119320000Y-98670000D01*
X156998000Y-102372000D02*
X156998000Y-103302000D01*
X156998000Y-105532000D02*
X156998000Y-104602000D01*
X156998000Y-105532000D02*
X160158000Y-105532000D01*
X156998000Y-102372000D02*
X158458000Y-102372000D01*
X133376000Y-104658000D02*
X134836000Y-104658000D01*
X133376000Y-107818000D02*
X136536000Y-107818000D01*
X133376000Y-107818000D02*
X133376000Y-106888000D01*
X133376000Y-104658000D02*
X133376000Y-105588000D01*
X163470000Y-104590436D02*
X163470000Y-105794564D01*
X161650000Y-104590436D02*
X161650000Y-105794564D01*
X133456000Y-110432436D02*
X133456000Y-111636564D01*
X135276000Y-110432436D02*
X135276000Y-111636564D01*
X152459000Y-104066000D02*
X152459000Y-113836000D01*
X142689000Y-104066000D02*
X142689000Y-113836000D01*
X152459000Y-104066000D02*
X142689000Y-104066000D01*
X152459000Y-113836000D02*
X142689000Y-113836000D01*
X141558000Y-110474000D02*
G75*
G03X141558000Y-110474000I-2620000J0D01*
G01*
X169244000Y-100854000D02*
G75*
G03X169244000Y-100854000I-2620000J0D01*
G01*
D11*
X129421047Y-114228571D02*
X129563904Y-114276190D01*
X129611523Y-114323809D01*
X129659142Y-114419047D01*
X129659142Y-114561904D01*
X129611523Y-114657142D01*
X129563904Y-114704761D01*
X129468666Y-114752380D01*
X129087714Y-114752380D01*
X129087714Y-113752380D01*
X129421047Y-113752380D01*
X129516285Y-113800000D01*
X129563904Y-113847619D01*
X129611523Y-113942857D01*
X129611523Y-114038095D01*
X129563904Y-114133333D01*
X129516285Y-114180952D01*
X129421047Y-114228571D01*
X129087714Y-114228571D01*
X129992476Y-113752380D02*
X130659142Y-113752380D01*
X129992476Y-114752380D01*
X130659142Y-114752380D01*
X131563904Y-114752380D02*
X130992476Y-114752380D01*
X131278190Y-114752380D02*
X131278190Y-113752380D01*
X131182952Y-113895238D01*
X131087714Y-113990476D01*
X130992476Y-114038095D01*
X128407047Y-111323428D02*
X129168952Y-111323428D01*
X128788000Y-111704380D02*
X128788000Y-110942476D01*
X119554666Y-102068380D02*
X119554666Y-102782666D01*
X119507047Y-102925523D01*
X119411809Y-103020761D01*
X119268952Y-103068380D01*
X119173714Y-103068380D01*
X119983238Y-102163619D02*
X120030857Y-102116000D01*
X120126095Y-102068380D01*
X120364190Y-102068380D01*
X120459428Y-102116000D01*
X120507047Y-102163619D01*
X120554666Y-102258857D01*
X120554666Y-102354095D01*
X120507047Y-102496952D01*
X119935619Y-103068380D01*
X120554666Y-103068380D01*
X157662761Y-107299619D02*
X157567523Y-107252000D01*
X157472285Y-107156761D01*
X157329428Y-107013904D01*
X157234190Y-106966285D01*
X157138952Y-106966285D01*
X157186571Y-107204380D02*
X157091333Y-107156761D01*
X156996095Y-107061523D01*
X156948476Y-106871047D01*
X156948476Y-106537714D01*
X156996095Y-106347238D01*
X157091333Y-106252000D01*
X157186571Y-106204380D01*
X157377047Y-106204380D01*
X157472285Y-106252000D01*
X157567523Y-106347238D01*
X157615142Y-106537714D01*
X157615142Y-106871047D01*
X157567523Y-107061523D01*
X157472285Y-107156761D01*
X157377047Y-107204380D01*
X157186571Y-107204380D01*
X158567523Y-107204380D02*
X157996095Y-107204380D01*
X158281809Y-107204380D02*
X158281809Y-106204380D01*
X158186571Y-106347238D01*
X158091333Y-106442476D01*
X157996095Y-106490095D01*
X134040761Y-104285619D02*
X133945523Y-104238000D01*
X133850285Y-104142761D01*
X133707428Y-103999904D01*
X133612190Y-103952285D01*
X133516952Y-103952285D01*
X133564571Y-104190380D02*
X133469333Y-104142761D01*
X133374095Y-104047523D01*
X133326476Y-103857047D01*
X133326476Y-103523714D01*
X133374095Y-103333238D01*
X133469333Y-103238000D01*
X133564571Y-103190380D01*
X133755047Y-103190380D01*
X133850285Y-103238000D01*
X133945523Y-103333238D01*
X133993142Y-103523714D01*
X133993142Y-103857047D01*
X133945523Y-104047523D01*
X133850285Y-104142761D01*
X133755047Y-104190380D01*
X133564571Y-104190380D01*
X134374095Y-103285619D02*
X134421714Y-103238000D01*
X134516952Y-103190380D01*
X134755047Y-103190380D01*
X134850285Y-103238000D01*
X134897904Y-103285619D01*
X134945523Y-103380857D01*
X134945523Y-103476095D01*
X134897904Y-103618952D01*
X134326476Y-104190380D01*
X134945523Y-104190380D01*
X164425333Y-105608380D02*
X164092000Y-105132190D01*
X163853904Y-105608380D02*
X163853904Y-104608380D01*
X164234857Y-104608380D01*
X164330095Y-104656000D01*
X164377714Y-104703619D01*
X164425333Y-104798857D01*
X164425333Y-104941714D01*
X164377714Y-105036952D01*
X164330095Y-105084571D01*
X164234857Y-105132190D01*
X163853904Y-105132190D01*
X165377714Y-105608380D02*
X164806285Y-105608380D01*
X165092000Y-105608380D02*
X165092000Y-104608380D01*
X164996761Y-104751238D01*
X164901523Y-104846476D01*
X164806285Y-104894095D01*
X132167333Y-111450380D02*
X131834000Y-110974190D01*
X131595904Y-111450380D02*
X131595904Y-110450380D01*
X131976857Y-110450380D01*
X132072095Y-110498000D01*
X132119714Y-110545619D01*
X132167333Y-110640857D01*
X132167333Y-110783714D01*
X132119714Y-110878952D01*
X132072095Y-110926571D01*
X131976857Y-110974190D01*
X131595904Y-110974190D01*
X132548285Y-110545619D02*
X132595904Y-110498000D01*
X132691142Y-110450380D01*
X132929238Y-110450380D01*
X133024476Y-110498000D01*
X133072095Y-110545619D01*
X133119714Y-110640857D01*
X133119714Y-110736095D01*
X133072095Y-110878952D01*
X132500666Y-111450380D01*
X133119714Y-111450380D01*
X144669238Y-115165142D02*
X144621619Y-115212761D01*
X144478761Y-115260380D01*
X144383523Y-115260380D01*
X144240666Y-115212761D01*
X144145428Y-115117523D01*
X144097809Y-115022285D01*
X144050190Y-114831809D01*
X144050190Y-114688952D01*
X144097809Y-114498476D01*
X144145428Y-114403238D01*
X144240666Y-114308000D01*
X144383523Y-114260380D01*
X144478761Y-114260380D01*
X144621619Y-114308000D01*
X144669238Y-114355619D01*
X145288285Y-114260380D02*
X145478761Y-114260380D01*
X145574000Y-114308000D01*
X145669238Y-114403238D01*
X145716857Y-114593714D01*
X145716857Y-114927047D01*
X145669238Y-115117523D01*
X145574000Y-115212761D01*
X145478761Y-115260380D01*
X145288285Y-115260380D01*
X145193047Y-115212761D01*
X145097809Y-115117523D01*
X145050190Y-114927047D01*
X145050190Y-114593714D01*
X145097809Y-114403238D01*
X145193047Y-114308000D01*
X145288285Y-114260380D01*
X146145428Y-115260380D02*
X146145428Y-114260380D01*
X146716857Y-115260380D01*
X146716857Y-114260380D01*
X147050190Y-114260380D02*
X147621619Y-114260380D01*
X147335904Y-115260380D02*
X147335904Y-114260380D01*
X148526380Y-115260380D02*
X148193047Y-114784190D01*
X147954952Y-115260380D02*
X147954952Y-114260380D01*
X148335904Y-114260380D01*
X148431142Y-114308000D01*
X148478761Y-114355619D01*
X148526380Y-114450857D01*
X148526380Y-114593714D01*
X148478761Y-114688952D01*
X148431142Y-114736571D01*
X148335904Y-114784190D01*
X147954952Y-114784190D01*
X148907333Y-114974666D02*
X149383523Y-114974666D01*
X148812095Y-115260380D02*
X149145428Y-114260380D01*
X149478761Y-115260380D01*
X149764476Y-115212761D02*
X149907333Y-115260380D01*
X150145428Y-115260380D01*
X150240666Y-115212761D01*
X150288285Y-115165142D01*
X150335904Y-115069904D01*
X150335904Y-114974666D01*
X150288285Y-114879428D01*
X150240666Y-114831809D01*
X150145428Y-114784190D01*
X149954952Y-114736571D01*
X149859714Y-114688952D01*
X149812095Y-114641333D01*
X149764476Y-114546095D01*
X149764476Y-114450857D01*
X149812095Y-114355619D01*
X149859714Y-114308000D01*
X149954952Y-114260380D01*
X150193047Y-114260380D01*
X150335904Y-114308000D01*
X150621619Y-114260380D02*
X151193047Y-114260380D01*
X150907333Y-115260380D02*
X150907333Y-114260380D01*
X138771333Y-114657142D02*
X138723714Y-114704761D01*
X138580857Y-114752380D01*
X138485619Y-114752380D01*
X138342761Y-114704761D01*
X138247523Y-114609523D01*
X138199904Y-114514285D01*
X138152285Y-114323809D01*
X138152285Y-114180952D01*
X138199904Y-113990476D01*
X138247523Y-113895238D01*
X138342761Y-113800000D01*
X138485619Y-113752380D01*
X138580857Y-113752380D01*
X138723714Y-113800000D01*
X138771333Y-113847619D01*
X139723714Y-114752380D02*
X139152285Y-114752380D01*
X139438000Y-114752380D02*
X139438000Y-113752380D01*
X139342761Y-113895238D01*
X139247523Y-113990476D01*
X139152285Y-114038095D01*
X162707333Y-101211142D02*
X162659714Y-101258761D01*
X162516857Y-101306380D01*
X162421619Y-101306380D01*
X162278761Y-101258761D01*
X162183523Y-101163523D01*
X162135904Y-101068285D01*
X162088285Y-100877809D01*
X162088285Y-100734952D01*
X162135904Y-100544476D01*
X162183523Y-100449238D01*
X162278761Y-100354000D01*
X162421619Y-100306380D01*
X162516857Y-100306380D01*
X162659714Y-100354000D01*
X162707333Y-100401619D01*
X163088285Y-100401619D02*
X163135904Y-100354000D01*
X163231142Y-100306380D01*
X163469238Y-100306380D01*
X163564476Y-100354000D01*
X163612095Y-100401619D01*
X163659714Y-100496857D01*
X163659714Y-100592095D01*
X163612095Y-100734952D01*
X163040666Y-101306380D01*
X163659714Y-101306380D01*
M02*
