M48
; DRILL file {KiCad 5.1.5+dfsg1-2build2} date Fri 20 Nov 2020 08:54:19 AM EST
; FORMAT={-:-/ absolute / metric / decimal}
; #@! TF.CreationDate,2020-11-20T08:54:19-05:00
; #@! TF.GenerationSoftware,Kicad,Pcbnew,5.1.5+dfsg1-2build2
; #@! TF.FileFunction,Plated,1,2,PTH
FMAT,2
METRIC
T1C0.600
T2C0.800
T3C1.000
%
G90
G05
T1
X138.938Y-109.474
X138.938Y-111.474
X166.624Y-99.854
X166.624Y-101.854
T2
X145.034Y-108.966
X147.574Y-111.506
X150.114Y-108.966
T3
X120.65Y-100.0
X123.19Y-100.0
X125.73Y-100.0
X128.27Y-100.0
X130.81Y-100.0
X133.35Y-100.0
X135.89Y-100.0
X138.43Y-100.0
X140.97Y-100.0
X143.51Y-100.0
X146.05Y-100.0
X148.59Y-100.0
X151.13Y-100.0
X153.67Y-100.0
X156.21Y-100.0
X158.75Y-100.0
X154.686Y-109.982
X154.686Y-112.522
X157.226Y-109.982
X157.226Y-112.522
X159.766Y-109.982
X159.766Y-112.522
X162.306Y-109.982
X162.306Y-112.522
X164.846Y-109.982
X164.846Y-112.522
X167.386Y-109.982
X167.386Y-112.522
X121.178Y-108.712
X128.778Y-108.712
T0
M30
