G04 #@! TF.GenerationSoftware,KiCad,Pcbnew,5.1.5+dfsg1-2build2*
G04 #@! TF.CreationDate,2020-11-20T08:54:09-05:00*
G04 #@! TF.ProjectId,portb_lcd_mod,706f7274-625f-46c6-9364-5f6d6f642e6b,rev?*
G04 #@! TF.SameCoordinates,Original*
G04 #@! TF.FileFunction,Paste,Top*
G04 #@! TF.FilePolarity,Positive*
%FSLAX46Y46*%
G04 Gerber Fmt 4.6, Leading zero omitted, Abs format (unit mm)*
G04 Created by KiCad (PCBNEW 5.1.5+dfsg1-2build2) date 2020-11-20 08:54:09*
%MOMM*%
%LPD*%
G04 APERTURE LIST*
%ADD10R,1.900000X0.800000*%
%ADD11C,0.100000*%
G04 APERTURE END LIST*
D10*
X159258000Y-104902000D03*
X159258000Y-103002000D03*
X156258000Y-103952000D03*
X132636000Y-106238000D03*
X135636000Y-105288000D03*
X135636000Y-107188000D03*
D11*
G36*
X163209504Y-102993704D02*
G01*
X163233773Y-102997304D01*
X163257571Y-103003265D01*
X163280671Y-103011530D01*
X163302849Y-103022020D01*
X163323893Y-103034633D01*
X163343598Y-103049247D01*
X163361777Y-103065723D01*
X163378253Y-103083902D01*
X163392867Y-103103607D01*
X163405480Y-103124651D01*
X163415970Y-103146829D01*
X163424235Y-103169929D01*
X163430196Y-103193727D01*
X163433796Y-103217996D01*
X163435000Y-103242500D01*
X163435000Y-104167500D01*
X163433796Y-104192004D01*
X163430196Y-104216273D01*
X163424235Y-104240071D01*
X163415970Y-104263171D01*
X163405480Y-104285349D01*
X163392867Y-104306393D01*
X163378253Y-104326098D01*
X163361777Y-104344277D01*
X163343598Y-104360753D01*
X163323893Y-104375367D01*
X163302849Y-104387980D01*
X163280671Y-104398470D01*
X163257571Y-104406735D01*
X163233773Y-104412696D01*
X163209504Y-104416296D01*
X163185000Y-104417500D01*
X161935000Y-104417500D01*
X161910496Y-104416296D01*
X161886227Y-104412696D01*
X161862429Y-104406735D01*
X161839329Y-104398470D01*
X161817151Y-104387980D01*
X161796107Y-104375367D01*
X161776402Y-104360753D01*
X161758223Y-104344277D01*
X161741747Y-104326098D01*
X161727133Y-104306393D01*
X161714520Y-104285349D01*
X161704030Y-104263171D01*
X161695765Y-104240071D01*
X161689804Y-104216273D01*
X161686204Y-104192004D01*
X161685000Y-104167500D01*
X161685000Y-103242500D01*
X161686204Y-103217996D01*
X161689804Y-103193727D01*
X161695765Y-103169929D01*
X161704030Y-103146829D01*
X161714520Y-103124651D01*
X161727133Y-103103607D01*
X161741747Y-103083902D01*
X161758223Y-103065723D01*
X161776402Y-103049247D01*
X161796107Y-103034633D01*
X161817151Y-103022020D01*
X161839329Y-103011530D01*
X161862429Y-103003265D01*
X161886227Y-102997304D01*
X161910496Y-102993704D01*
X161935000Y-102992500D01*
X163185000Y-102992500D01*
X163209504Y-102993704D01*
G37*
G36*
X163209504Y-105968704D02*
G01*
X163233773Y-105972304D01*
X163257571Y-105978265D01*
X163280671Y-105986530D01*
X163302849Y-105997020D01*
X163323893Y-106009633D01*
X163343598Y-106024247D01*
X163361777Y-106040723D01*
X163378253Y-106058902D01*
X163392867Y-106078607D01*
X163405480Y-106099651D01*
X163415970Y-106121829D01*
X163424235Y-106144929D01*
X163430196Y-106168727D01*
X163433796Y-106192996D01*
X163435000Y-106217500D01*
X163435000Y-107142500D01*
X163433796Y-107167004D01*
X163430196Y-107191273D01*
X163424235Y-107215071D01*
X163415970Y-107238171D01*
X163405480Y-107260349D01*
X163392867Y-107281393D01*
X163378253Y-107301098D01*
X163361777Y-107319277D01*
X163343598Y-107335753D01*
X163323893Y-107350367D01*
X163302849Y-107362980D01*
X163280671Y-107373470D01*
X163257571Y-107381735D01*
X163233773Y-107387696D01*
X163209504Y-107391296D01*
X163185000Y-107392500D01*
X161935000Y-107392500D01*
X161910496Y-107391296D01*
X161886227Y-107387696D01*
X161862429Y-107381735D01*
X161839329Y-107373470D01*
X161817151Y-107362980D01*
X161796107Y-107350367D01*
X161776402Y-107335753D01*
X161758223Y-107319277D01*
X161741747Y-107301098D01*
X161727133Y-107281393D01*
X161714520Y-107260349D01*
X161704030Y-107238171D01*
X161695765Y-107215071D01*
X161689804Y-107191273D01*
X161686204Y-107167004D01*
X161685000Y-107142500D01*
X161685000Y-106217500D01*
X161686204Y-106192996D01*
X161689804Y-106168727D01*
X161695765Y-106144929D01*
X161704030Y-106121829D01*
X161714520Y-106099651D01*
X161727133Y-106078607D01*
X161741747Y-106058902D01*
X161758223Y-106040723D01*
X161776402Y-106024247D01*
X161796107Y-106009633D01*
X161817151Y-105997020D01*
X161839329Y-105986530D01*
X161862429Y-105978265D01*
X161886227Y-105972304D01*
X161910496Y-105968704D01*
X161935000Y-105967500D01*
X163185000Y-105967500D01*
X163209504Y-105968704D01*
G37*
G36*
X135015504Y-111810704D02*
G01*
X135039773Y-111814304D01*
X135063571Y-111820265D01*
X135086671Y-111828530D01*
X135108849Y-111839020D01*
X135129893Y-111851633D01*
X135149598Y-111866247D01*
X135167777Y-111882723D01*
X135184253Y-111900902D01*
X135198867Y-111920607D01*
X135211480Y-111941651D01*
X135221970Y-111963829D01*
X135230235Y-111986929D01*
X135236196Y-112010727D01*
X135239796Y-112034996D01*
X135241000Y-112059500D01*
X135241000Y-112984500D01*
X135239796Y-113009004D01*
X135236196Y-113033273D01*
X135230235Y-113057071D01*
X135221970Y-113080171D01*
X135211480Y-113102349D01*
X135198867Y-113123393D01*
X135184253Y-113143098D01*
X135167777Y-113161277D01*
X135149598Y-113177753D01*
X135129893Y-113192367D01*
X135108849Y-113204980D01*
X135086671Y-113215470D01*
X135063571Y-113223735D01*
X135039773Y-113229696D01*
X135015504Y-113233296D01*
X134991000Y-113234500D01*
X133741000Y-113234500D01*
X133716496Y-113233296D01*
X133692227Y-113229696D01*
X133668429Y-113223735D01*
X133645329Y-113215470D01*
X133623151Y-113204980D01*
X133602107Y-113192367D01*
X133582402Y-113177753D01*
X133564223Y-113161277D01*
X133547747Y-113143098D01*
X133533133Y-113123393D01*
X133520520Y-113102349D01*
X133510030Y-113080171D01*
X133501765Y-113057071D01*
X133495804Y-113033273D01*
X133492204Y-113009004D01*
X133491000Y-112984500D01*
X133491000Y-112059500D01*
X133492204Y-112034996D01*
X133495804Y-112010727D01*
X133501765Y-111986929D01*
X133510030Y-111963829D01*
X133520520Y-111941651D01*
X133533133Y-111920607D01*
X133547747Y-111900902D01*
X133564223Y-111882723D01*
X133582402Y-111866247D01*
X133602107Y-111851633D01*
X133623151Y-111839020D01*
X133645329Y-111828530D01*
X133668429Y-111820265D01*
X133692227Y-111814304D01*
X133716496Y-111810704D01*
X133741000Y-111809500D01*
X134991000Y-111809500D01*
X135015504Y-111810704D01*
G37*
G36*
X135015504Y-108835704D02*
G01*
X135039773Y-108839304D01*
X135063571Y-108845265D01*
X135086671Y-108853530D01*
X135108849Y-108864020D01*
X135129893Y-108876633D01*
X135149598Y-108891247D01*
X135167777Y-108907723D01*
X135184253Y-108925902D01*
X135198867Y-108945607D01*
X135211480Y-108966651D01*
X135221970Y-108988829D01*
X135230235Y-109011929D01*
X135236196Y-109035727D01*
X135239796Y-109059996D01*
X135241000Y-109084500D01*
X135241000Y-110009500D01*
X135239796Y-110034004D01*
X135236196Y-110058273D01*
X135230235Y-110082071D01*
X135221970Y-110105171D01*
X135211480Y-110127349D01*
X135198867Y-110148393D01*
X135184253Y-110168098D01*
X135167777Y-110186277D01*
X135149598Y-110202753D01*
X135129893Y-110217367D01*
X135108849Y-110229980D01*
X135086671Y-110240470D01*
X135063571Y-110248735D01*
X135039773Y-110254696D01*
X135015504Y-110258296D01*
X134991000Y-110259500D01*
X133741000Y-110259500D01*
X133716496Y-110258296D01*
X133692227Y-110254696D01*
X133668429Y-110248735D01*
X133645329Y-110240470D01*
X133623151Y-110229980D01*
X133602107Y-110217367D01*
X133582402Y-110202753D01*
X133564223Y-110186277D01*
X133547747Y-110168098D01*
X133533133Y-110148393D01*
X133520520Y-110127349D01*
X133510030Y-110105171D01*
X133501765Y-110082071D01*
X133495804Y-110058273D01*
X133492204Y-110034004D01*
X133491000Y-110009500D01*
X133491000Y-109084500D01*
X133492204Y-109059996D01*
X133495804Y-109035727D01*
X133501765Y-109011929D01*
X133510030Y-108988829D01*
X133520520Y-108966651D01*
X133533133Y-108945607D01*
X133547747Y-108925902D01*
X133564223Y-108907723D01*
X133582402Y-108891247D01*
X133602107Y-108876633D01*
X133623151Y-108864020D01*
X133645329Y-108853530D01*
X133668429Y-108845265D01*
X133692227Y-108839304D01*
X133716496Y-108835704D01*
X133741000Y-108834500D01*
X134991000Y-108834500D01*
X135015504Y-108835704D01*
G37*
M02*
