G04 #@! TF.GenerationSoftware,KiCad,Pcbnew,5.1.5+dfsg1-2build2*
G04 #@! TF.CreationDate,2020-11-20T08:54:09-05:00*
G04 #@! TF.ProjectId,portb_lcd_mod,706f7274-625f-46c6-9364-5f6d6f642e6b,rev?*
G04 #@! TF.SameCoordinates,Original*
G04 #@! TF.FileFunction,Copper,L2,Bot*
G04 #@! TF.FilePolarity,Positive*
%FSLAX46Y46*%
G04 Gerber Fmt 4.6, Leading zero omitted, Abs format (unit mm)*
G04 Created by KiCad (PCBNEW 5.1.5+dfsg1-2build2) date 2020-11-20 08:54:09*
%MOMM*%
%LPD*%
G04 APERTURE LIST*
%ADD10R,2.000000X2.000000*%
%ADD11C,2.000000*%
%ADD12R,1.700000X1.700000*%
%ADD13O,1.700000X1.700000*%
%ADD14C,1.440000*%
%ADD15C,1.200000*%
%ADD16C,0.254000*%
G04 APERTURE END LIST*
D10*
X128778000Y-108712000D03*
D11*
X121178000Y-108712000D03*
D12*
X120650000Y-100000000D03*
D13*
X123190000Y-100000000D03*
X125730000Y-100000000D03*
X128270000Y-100000000D03*
X130810000Y-100000000D03*
X133350000Y-100000000D03*
X135890000Y-100000000D03*
X138430000Y-100000000D03*
X140970000Y-100000000D03*
X143510000Y-100000000D03*
X146050000Y-100000000D03*
X148590000Y-100000000D03*
X151130000Y-100000000D03*
X153670000Y-100000000D03*
X156210000Y-100000000D03*
X158750000Y-100000000D03*
D14*
X150114000Y-108966000D03*
X147574000Y-111506000D03*
X145034000Y-108966000D03*
D15*
X138938000Y-109474000D03*
X138938000Y-111474000D03*
X166624000Y-99854000D03*
X166624000Y-101854000D03*
D12*
X154686000Y-109982000D03*
D13*
X154686000Y-112522000D03*
X157226000Y-109982000D03*
X157226000Y-112522000D03*
X159766000Y-109982000D03*
X159766000Y-112522000D03*
X162306000Y-109982000D03*
X162306000Y-112522000D03*
X164846000Y-109982000D03*
X164846000Y-112522000D03*
X167386000Y-109982000D03*
X167386000Y-112522000D03*
D16*
G36*
X169315001Y-114815000D02*
G01*
X118685000Y-114815000D01*
X118685000Y-112323764D01*
X138267841Y-112323764D01*
X138315148Y-112547348D01*
X138536516Y-112648237D01*
X138773313Y-112704000D01*
X139016438Y-112712495D01*
X139256549Y-112673395D01*
X139484418Y-112588202D01*
X139560852Y-112547348D01*
X139608159Y-112323764D01*
X138938000Y-111653605D01*
X138267841Y-112323764D01*
X118685000Y-112323764D01*
X118685000Y-111552438D01*
X137699505Y-111552438D01*
X137738605Y-111792549D01*
X137823798Y-112020418D01*
X137864652Y-112096852D01*
X138088236Y-112144159D01*
X138758395Y-111474000D01*
X139117605Y-111474000D01*
X139787764Y-112144159D01*
X140011348Y-112096852D01*
X140112237Y-111875484D01*
X140168000Y-111638687D01*
X140176495Y-111395562D01*
X140172747Y-111372544D01*
X146219000Y-111372544D01*
X146219000Y-111639456D01*
X146271072Y-111901239D01*
X146373215Y-112147833D01*
X146521503Y-112369762D01*
X146710238Y-112558497D01*
X146932167Y-112706785D01*
X147178761Y-112808928D01*
X147440544Y-112861000D01*
X147707456Y-112861000D01*
X147969239Y-112808928D01*
X148215833Y-112706785D01*
X148437762Y-112558497D01*
X148626497Y-112369762D01*
X148774785Y-112147833D01*
X148876928Y-111901239D01*
X148929000Y-111639456D01*
X148929000Y-111372544D01*
X148876928Y-111110761D01*
X148774785Y-110864167D01*
X148626497Y-110642238D01*
X148437762Y-110453503D01*
X148215833Y-110305215D01*
X147969239Y-110203072D01*
X147707456Y-110151000D01*
X147440544Y-110151000D01*
X147178761Y-110203072D01*
X146932167Y-110305215D01*
X146710238Y-110453503D01*
X146521503Y-110642238D01*
X146373215Y-110864167D01*
X146271072Y-111110761D01*
X146219000Y-111372544D01*
X140172747Y-111372544D01*
X140137395Y-111155451D01*
X140052202Y-110927582D01*
X140011348Y-110851148D01*
X139787764Y-110803841D01*
X139117605Y-111474000D01*
X138758395Y-111474000D01*
X138088236Y-110803841D01*
X137864652Y-110851148D01*
X137763763Y-111072516D01*
X137708000Y-111309313D01*
X137699505Y-111552438D01*
X118685000Y-111552438D01*
X118685000Y-109847413D01*
X120222192Y-109847413D01*
X120317956Y-110111814D01*
X120607571Y-110252704D01*
X120919108Y-110334384D01*
X121240595Y-110353718D01*
X121559675Y-110309961D01*
X121864088Y-110204795D01*
X122038044Y-110111814D01*
X122133808Y-109847413D01*
X121178000Y-108891605D01*
X120222192Y-109847413D01*
X118685000Y-109847413D01*
X118685000Y-108774595D01*
X119536282Y-108774595D01*
X119580039Y-109093675D01*
X119685205Y-109398088D01*
X119778186Y-109572044D01*
X120042587Y-109667808D01*
X120998395Y-108712000D01*
X121357605Y-108712000D01*
X122313413Y-109667808D01*
X122577814Y-109572044D01*
X122718704Y-109282429D01*
X122800384Y-108970892D01*
X122819718Y-108649405D01*
X122775961Y-108330325D01*
X122670795Y-108025912D01*
X122577814Y-107851956D01*
X122313413Y-107756192D01*
X121357605Y-108712000D01*
X120998395Y-108712000D01*
X120042587Y-107756192D01*
X119778186Y-107851956D01*
X119637296Y-108141571D01*
X119555616Y-108453108D01*
X119536282Y-108774595D01*
X118685000Y-108774595D01*
X118685000Y-107576587D01*
X120222192Y-107576587D01*
X121178000Y-108532395D01*
X121998395Y-107712000D01*
X127139928Y-107712000D01*
X127139928Y-109712000D01*
X127152188Y-109836482D01*
X127188498Y-109956180D01*
X127247463Y-110066494D01*
X127326815Y-110163185D01*
X127423506Y-110242537D01*
X127533820Y-110301502D01*
X127653518Y-110337812D01*
X127778000Y-110350072D01*
X129778000Y-110350072D01*
X129902482Y-110337812D01*
X130022180Y-110301502D01*
X130132494Y-110242537D01*
X130229185Y-110163185D01*
X130308537Y-110066494D01*
X130367502Y-109956180D01*
X130403812Y-109836482D01*
X130416072Y-109712000D01*
X130416072Y-109352363D01*
X137703000Y-109352363D01*
X137703000Y-109595637D01*
X137750460Y-109834236D01*
X137843557Y-110058992D01*
X137978713Y-110261267D01*
X138150733Y-110433287D01*
X138288733Y-110525496D01*
X138267841Y-110624236D01*
X138938000Y-111294395D01*
X139608159Y-110624236D01*
X139587267Y-110525496D01*
X139725267Y-110433287D01*
X139897287Y-110261267D01*
X140032443Y-110058992D01*
X140125540Y-109834236D01*
X140173000Y-109595637D01*
X140173000Y-109352363D01*
X140125540Y-109113764D01*
X140032443Y-108889008D01*
X139994715Y-108832544D01*
X143679000Y-108832544D01*
X143679000Y-109099456D01*
X143731072Y-109361239D01*
X143833215Y-109607833D01*
X143981503Y-109829762D01*
X144170238Y-110018497D01*
X144392167Y-110166785D01*
X144638761Y-110268928D01*
X144900544Y-110321000D01*
X145167456Y-110321000D01*
X145429239Y-110268928D01*
X145675833Y-110166785D01*
X145897762Y-110018497D01*
X146014699Y-109901560D01*
X149358045Y-109901560D01*
X149419932Y-110137368D01*
X149661790Y-110250266D01*
X149921027Y-110313811D01*
X150187680Y-110325561D01*
X150451501Y-110285063D01*
X150702353Y-110193875D01*
X150808068Y-110137368D01*
X150869955Y-109901560D01*
X150114000Y-109145605D01*
X149358045Y-109901560D01*
X146014699Y-109901560D01*
X146086497Y-109829762D01*
X146234785Y-109607833D01*
X146336928Y-109361239D01*
X146389000Y-109099456D01*
X146389000Y-109039680D01*
X148754439Y-109039680D01*
X148794937Y-109303501D01*
X148886125Y-109554353D01*
X148942632Y-109660068D01*
X149178440Y-109721955D01*
X149934395Y-108966000D01*
X150293605Y-108966000D01*
X151049560Y-109721955D01*
X151285368Y-109660068D01*
X151398266Y-109418210D01*
X151461811Y-109158973D01*
X151462999Y-109132000D01*
X153197928Y-109132000D01*
X153197928Y-110832000D01*
X153210188Y-110956482D01*
X153246498Y-111076180D01*
X153305463Y-111186494D01*
X153384815Y-111283185D01*
X153481506Y-111362537D01*
X153591820Y-111421502D01*
X153664380Y-111443513D01*
X153532525Y-111575368D01*
X153370010Y-111818589D01*
X153258068Y-112088842D01*
X153201000Y-112375740D01*
X153201000Y-112668260D01*
X153258068Y-112955158D01*
X153370010Y-113225411D01*
X153532525Y-113468632D01*
X153739368Y-113675475D01*
X153982589Y-113837990D01*
X154252842Y-113949932D01*
X154539740Y-114007000D01*
X154832260Y-114007000D01*
X155119158Y-113949932D01*
X155389411Y-113837990D01*
X155632632Y-113675475D01*
X155839475Y-113468632D01*
X155956000Y-113294240D01*
X156072525Y-113468632D01*
X156279368Y-113675475D01*
X156522589Y-113837990D01*
X156792842Y-113949932D01*
X157079740Y-114007000D01*
X157372260Y-114007000D01*
X157659158Y-113949932D01*
X157929411Y-113837990D01*
X158172632Y-113675475D01*
X158379475Y-113468632D01*
X158496000Y-113294240D01*
X158612525Y-113468632D01*
X158819368Y-113675475D01*
X159062589Y-113837990D01*
X159332842Y-113949932D01*
X159619740Y-114007000D01*
X159912260Y-114007000D01*
X160199158Y-113949932D01*
X160469411Y-113837990D01*
X160712632Y-113675475D01*
X160919475Y-113468632D01*
X161036000Y-113294240D01*
X161152525Y-113468632D01*
X161359368Y-113675475D01*
X161602589Y-113837990D01*
X161872842Y-113949932D01*
X162159740Y-114007000D01*
X162452260Y-114007000D01*
X162739158Y-113949932D01*
X163009411Y-113837990D01*
X163252632Y-113675475D01*
X163459475Y-113468632D01*
X163581195Y-113286466D01*
X163650822Y-113403355D01*
X163845731Y-113619588D01*
X164079080Y-113793641D01*
X164341901Y-113918825D01*
X164489110Y-113963476D01*
X164719000Y-113842155D01*
X164719000Y-112649000D01*
X164699000Y-112649000D01*
X164699000Y-112395000D01*
X164719000Y-112395000D01*
X164719000Y-112375000D01*
X164973000Y-112375000D01*
X164973000Y-112395000D01*
X164993000Y-112395000D01*
X164993000Y-112649000D01*
X164973000Y-112649000D01*
X164973000Y-113842155D01*
X165202890Y-113963476D01*
X165350099Y-113918825D01*
X165612920Y-113793641D01*
X165846269Y-113619588D01*
X166041178Y-113403355D01*
X166110805Y-113286466D01*
X166232525Y-113468632D01*
X166439368Y-113675475D01*
X166682589Y-113837990D01*
X166952842Y-113949932D01*
X167239740Y-114007000D01*
X167532260Y-114007000D01*
X167819158Y-113949932D01*
X168089411Y-113837990D01*
X168332632Y-113675475D01*
X168539475Y-113468632D01*
X168701990Y-113225411D01*
X168813932Y-112955158D01*
X168871000Y-112668260D01*
X168871000Y-112375740D01*
X168813932Y-112088842D01*
X168701990Y-111818589D01*
X168539475Y-111575368D01*
X168332632Y-111368525D01*
X168158240Y-111252000D01*
X168332632Y-111135475D01*
X168539475Y-110928632D01*
X168701990Y-110685411D01*
X168813932Y-110415158D01*
X168871000Y-110128260D01*
X168871000Y-109835740D01*
X168813932Y-109548842D01*
X168701990Y-109278589D01*
X168539475Y-109035368D01*
X168332632Y-108828525D01*
X168089411Y-108666010D01*
X167819158Y-108554068D01*
X167532260Y-108497000D01*
X167239740Y-108497000D01*
X166952842Y-108554068D01*
X166682589Y-108666010D01*
X166439368Y-108828525D01*
X166232525Y-109035368D01*
X166116000Y-109209760D01*
X165999475Y-109035368D01*
X165792632Y-108828525D01*
X165549411Y-108666010D01*
X165279158Y-108554068D01*
X164992260Y-108497000D01*
X164699740Y-108497000D01*
X164412842Y-108554068D01*
X164142589Y-108666010D01*
X163899368Y-108828525D01*
X163692525Y-109035368D01*
X163576000Y-109209760D01*
X163459475Y-109035368D01*
X163252632Y-108828525D01*
X163009411Y-108666010D01*
X162739158Y-108554068D01*
X162452260Y-108497000D01*
X162159740Y-108497000D01*
X161872842Y-108554068D01*
X161602589Y-108666010D01*
X161359368Y-108828525D01*
X161152525Y-109035368D01*
X161036000Y-109209760D01*
X160919475Y-109035368D01*
X160712632Y-108828525D01*
X160469411Y-108666010D01*
X160199158Y-108554068D01*
X159912260Y-108497000D01*
X159619740Y-108497000D01*
X159332842Y-108554068D01*
X159062589Y-108666010D01*
X158819368Y-108828525D01*
X158612525Y-109035368D01*
X158496000Y-109209760D01*
X158379475Y-109035368D01*
X158172632Y-108828525D01*
X157929411Y-108666010D01*
X157659158Y-108554068D01*
X157372260Y-108497000D01*
X157079740Y-108497000D01*
X156792842Y-108554068D01*
X156522589Y-108666010D01*
X156279368Y-108828525D01*
X156147513Y-108960380D01*
X156125502Y-108887820D01*
X156066537Y-108777506D01*
X155987185Y-108680815D01*
X155890494Y-108601463D01*
X155780180Y-108542498D01*
X155660482Y-108506188D01*
X155536000Y-108493928D01*
X153836000Y-108493928D01*
X153711518Y-108506188D01*
X153591820Y-108542498D01*
X153481506Y-108601463D01*
X153384815Y-108680815D01*
X153305463Y-108777506D01*
X153246498Y-108887820D01*
X153210188Y-109007518D01*
X153197928Y-109132000D01*
X151462999Y-109132000D01*
X151473561Y-108892320D01*
X151433063Y-108628499D01*
X151341875Y-108377647D01*
X151285368Y-108271932D01*
X151049560Y-108210045D01*
X150293605Y-108966000D01*
X149934395Y-108966000D01*
X149178440Y-108210045D01*
X148942632Y-108271932D01*
X148829734Y-108513790D01*
X148766189Y-108773027D01*
X148754439Y-109039680D01*
X146389000Y-109039680D01*
X146389000Y-108832544D01*
X146336928Y-108570761D01*
X146234785Y-108324167D01*
X146086497Y-108102238D01*
X146014699Y-108030440D01*
X149358045Y-108030440D01*
X150114000Y-108786395D01*
X150869955Y-108030440D01*
X150808068Y-107794632D01*
X150566210Y-107681734D01*
X150306973Y-107618189D01*
X150040320Y-107606439D01*
X149776499Y-107646937D01*
X149525647Y-107738125D01*
X149419932Y-107794632D01*
X149358045Y-108030440D01*
X146014699Y-108030440D01*
X145897762Y-107913503D01*
X145675833Y-107765215D01*
X145429239Y-107663072D01*
X145167456Y-107611000D01*
X144900544Y-107611000D01*
X144638761Y-107663072D01*
X144392167Y-107765215D01*
X144170238Y-107913503D01*
X143981503Y-108102238D01*
X143833215Y-108324167D01*
X143731072Y-108570761D01*
X143679000Y-108832544D01*
X139994715Y-108832544D01*
X139897287Y-108686733D01*
X139725267Y-108514713D01*
X139522992Y-108379557D01*
X139298236Y-108286460D01*
X139059637Y-108239000D01*
X138816363Y-108239000D01*
X138577764Y-108286460D01*
X138353008Y-108379557D01*
X138150733Y-108514713D01*
X137978713Y-108686733D01*
X137843557Y-108889008D01*
X137750460Y-109113764D01*
X137703000Y-109352363D01*
X130416072Y-109352363D01*
X130416072Y-107712000D01*
X130403812Y-107587518D01*
X130367502Y-107467820D01*
X130308537Y-107357506D01*
X130229185Y-107260815D01*
X130132494Y-107181463D01*
X130022180Y-107122498D01*
X129902482Y-107086188D01*
X129778000Y-107073928D01*
X127778000Y-107073928D01*
X127653518Y-107086188D01*
X127533820Y-107122498D01*
X127423506Y-107181463D01*
X127326815Y-107260815D01*
X127247463Y-107357506D01*
X127188498Y-107467820D01*
X127152188Y-107587518D01*
X127139928Y-107712000D01*
X121998395Y-107712000D01*
X122133808Y-107576587D01*
X122038044Y-107312186D01*
X121748429Y-107171296D01*
X121436892Y-107089616D01*
X121115405Y-107070282D01*
X120796325Y-107114039D01*
X120491912Y-107219205D01*
X120317956Y-107312186D01*
X120222192Y-107576587D01*
X118685000Y-107576587D01*
X118685000Y-101732363D01*
X165389000Y-101732363D01*
X165389000Y-101975637D01*
X165436460Y-102214236D01*
X165529557Y-102438992D01*
X165664713Y-102641267D01*
X165836733Y-102813287D01*
X166039008Y-102948443D01*
X166263764Y-103041540D01*
X166502363Y-103089000D01*
X166745637Y-103089000D01*
X166984236Y-103041540D01*
X167208992Y-102948443D01*
X167411267Y-102813287D01*
X167583287Y-102641267D01*
X167718443Y-102438992D01*
X167811540Y-102214236D01*
X167859000Y-101975637D01*
X167859000Y-101732363D01*
X167811540Y-101493764D01*
X167718443Y-101269008D01*
X167583287Y-101066733D01*
X167411267Y-100894713D01*
X167273267Y-100802504D01*
X167294159Y-100703764D01*
X166624000Y-100033605D01*
X165953841Y-100703764D01*
X165974733Y-100802504D01*
X165836733Y-100894713D01*
X165664713Y-101066733D01*
X165529557Y-101269008D01*
X165436460Y-101493764D01*
X165389000Y-101732363D01*
X118685000Y-101732363D01*
X118685000Y-100850000D01*
X119161928Y-100850000D01*
X119174188Y-100974482D01*
X119210498Y-101094180D01*
X119269463Y-101204494D01*
X119348815Y-101301185D01*
X119445506Y-101380537D01*
X119555820Y-101439502D01*
X119675518Y-101475812D01*
X119800000Y-101488072D01*
X120364250Y-101485000D01*
X120523000Y-101326250D01*
X120523000Y-100127000D01*
X119323750Y-100127000D01*
X119165000Y-100285750D01*
X119161928Y-100850000D01*
X118685000Y-100850000D01*
X118685000Y-99150000D01*
X119161928Y-99150000D01*
X119165000Y-99714250D01*
X119323750Y-99873000D01*
X120523000Y-99873000D01*
X120523000Y-98673750D01*
X120777000Y-98673750D01*
X120777000Y-99873000D01*
X120797000Y-99873000D01*
X120797000Y-100127000D01*
X120777000Y-100127000D01*
X120777000Y-101326250D01*
X120935750Y-101485000D01*
X121500000Y-101488072D01*
X121624482Y-101475812D01*
X121744180Y-101439502D01*
X121854494Y-101380537D01*
X121951185Y-101301185D01*
X122030537Y-101204494D01*
X122089502Y-101094180D01*
X122111513Y-101021620D01*
X122243368Y-101153475D01*
X122486589Y-101315990D01*
X122756842Y-101427932D01*
X123043740Y-101485000D01*
X123336260Y-101485000D01*
X123623158Y-101427932D01*
X123893411Y-101315990D01*
X124136632Y-101153475D01*
X124343475Y-100946632D01*
X124460000Y-100772240D01*
X124576525Y-100946632D01*
X124783368Y-101153475D01*
X125026589Y-101315990D01*
X125296842Y-101427932D01*
X125583740Y-101485000D01*
X125876260Y-101485000D01*
X126163158Y-101427932D01*
X126433411Y-101315990D01*
X126676632Y-101153475D01*
X126883475Y-100946632D01*
X127000000Y-100772240D01*
X127116525Y-100946632D01*
X127323368Y-101153475D01*
X127566589Y-101315990D01*
X127836842Y-101427932D01*
X128123740Y-101485000D01*
X128416260Y-101485000D01*
X128703158Y-101427932D01*
X128973411Y-101315990D01*
X129216632Y-101153475D01*
X129423475Y-100946632D01*
X129545195Y-100764466D01*
X129614822Y-100881355D01*
X129809731Y-101097588D01*
X130043080Y-101271641D01*
X130305901Y-101396825D01*
X130453110Y-101441476D01*
X130683000Y-101320155D01*
X130683000Y-100127000D01*
X130663000Y-100127000D01*
X130663000Y-99873000D01*
X130683000Y-99873000D01*
X130683000Y-98679845D01*
X130937000Y-98679845D01*
X130937000Y-99873000D01*
X130957000Y-99873000D01*
X130957000Y-100127000D01*
X130937000Y-100127000D01*
X130937000Y-101320155D01*
X131166890Y-101441476D01*
X131314099Y-101396825D01*
X131576920Y-101271641D01*
X131810269Y-101097588D01*
X132005178Y-100881355D01*
X132074805Y-100764466D01*
X132196525Y-100946632D01*
X132403368Y-101153475D01*
X132646589Y-101315990D01*
X132916842Y-101427932D01*
X133203740Y-101485000D01*
X133496260Y-101485000D01*
X133783158Y-101427932D01*
X134053411Y-101315990D01*
X134296632Y-101153475D01*
X134503475Y-100946632D01*
X134620000Y-100772240D01*
X134736525Y-100946632D01*
X134943368Y-101153475D01*
X135186589Y-101315990D01*
X135456842Y-101427932D01*
X135743740Y-101485000D01*
X136036260Y-101485000D01*
X136323158Y-101427932D01*
X136593411Y-101315990D01*
X136836632Y-101153475D01*
X137043475Y-100946632D01*
X137160000Y-100772240D01*
X137276525Y-100946632D01*
X137483368Y-101153475D01*
X137726589Y-101315990D01*
X137996842Y-101427932D01*
X138283740Y-101485000D01*
X138576260Y-101485000D01*
X138863158Y-101427932D01*
X139133411Y-101315990D01*
X139376632Y-101153475D01*
X139583475Y-100946632D01*
X139700000Y-100772240D01*
X139816525Y-100946632D01*
X140023368Y-101153475D01*
X140266589Y-101315990D01*
X140536842Y-101427932D01*
X140823740Y-101485000D01*
X141116260Y-101485000D01*
X141403158Y-101427932D01*
X141673411Y-101315990D01*
X141916632Y-101153475D01*
X142123475Y-100946632D01*
X142240000Y-100772240D01*
X142356525Y-100946632D01*
X142563368Y-101153475D01*
X142806589Y-101315990D01*
X143076842Y-101427932D01*
X143363740Y-101485000D01*
X143656260Y-101485000D01*
X143943158Y-101427932D01*
X144213411Y-101315990D01*
X144456632Y-101153475D01*
X144663475Y-100946632D01*
X144780000Y-100772240D01*
X144896525Y-100946632D01*
X145103368Y-101153475D01*
X145346589Y-101315990D01*
X145616842Y-101427932D01*
X145903740Y-101485000D01*
X146196260Y-101485000D01*
X146483158Y-101427932D01*
X146753411Y-101315990D01*
X146996632Y-101153475D01*
X147203475Y-100946632D01*
X147320000Y-100772240D01*
X147436525Y-100946632D01*
X147643368Y-101153475D01*
X147886589Y-101315990D01*
X148156842Y-101427932D01*
X148443740Y-101485000D01*
X148736260Y-101485000D01*
X149023158Y-101427932D01*
X149293411Y-101315990D01*
X149536632Y-101153475D01*
X149743475Y-100946632D01*
X149860000Y-100772240D01*
X149976525Y-100946632D01*
X150183368Y-101153475D01*
X150426589Y-101315990D01*
X150696842Y-101427932D01*
X150983740Y-101485000D01*
X151276260Y-101485000D01*
X151563158Y-101427932D01*
X151833411Y-101315990D01*
X152076632Y-101153475D01*
X152283475Y-100946632D01*
X152400000Y-100772240D01*
X152516525Y-100946632D01*
X152723368Y-101153475D01*
X152966589Y-101315990D01*
X153236842Y-101427932D01*
X153523740Y-101485000D01*
X153816260Y-101485000D01*
X154103158Y-101427932D01*
X154373411Y-101315990D01*
X154616632Y-101153475D01*
X154823475Y-100946632D01*
X154940000Y-100772240D01*
X155056525Y-100946632D01*
X155263368Y-101153475D01*
X155506589Y-101315990D01*
X155776842Y-101427932D01*
X156063740Y-101485000D01*
X156356260Y-101485000D01*
X156643158Y-101427932D01*
X156913411Y-101315990D01*
X157156632Y-101153475D01*
X157363475Y-100946632D01*
X157485195Y-100764466D01*
X157554822Y-100881355D01*
X157749731Y-101097588D01*
X157983080Y-101271641D01*
X158245901Y-101396825D01*
X158393110Y-101441476D01*
X158623000Y-101320155D01*
X158623000Y-100127000D01*
X158877000Y-100127000D01*
X158877000Y-101320155D01*
X159106890Y-101441476D01*
X159254099Y-101396825D01*
X159516920Y-101271641D01*
X159750269Y-101097588D01*
X159945178Y-100881355D01*
X160094157Y-100631252D01*
X160191481Y-100356891D01*
X160070814Y-100127000D01*
X158877000Y-100127000D01*
X158623000Y-100127000D01*
X158603000Y-100127000D01*
X158603000Y-99932438D01*
X165385505Y-99932438D01*
X165424605Y-100172549D01*
X165509798Y-100400418D01*
X165550652Y-100476852D01*
X165774236Y-100524159D01*
X166444395Y-99854000D01*
X166803605Y-99854000D01*
X167473764Y-100524159D01*
X167697348Y-100476852D01*
X167798237Y-100255484D01*
X167854000Y-100018687D01*
X167862495Y-99775562D01*
X167823395Y-99535451D01*
X167738202Y-99307582D01*
X167697348Y-99231148D01*
X167473764Y-99183841D01*
X166803605Y-99854000D01*
X166444395Y-99854000D01*
X165774236Y-99183841D01*
X165550652Y-99231148D01*
X165449763Y-99452516D01*
X165394000Y-99689313D01*
X165385505Y-99932438D01*
X158603000Y-99932438D01*
X158603000Y-99873000D01*
X158623000Y-99873000D01*
X158623000Y-98679845D01*
X158877000Y-98679845D01*
X158877000Y-99873000D01*
X160070814Y-99873000D01*
X160191481Y-99643109D01*
X160094157Y-99368748D01*
X159945178Y-99118645D01*
X159842052Y-99004236D01*
X165953841Y-99004236D01*
X166624000Y-99674395D01*
X167294159Y-99004236D01*
X167246852Y-98780652D01*
X167025484Y-98679763D01*
X166788687Y-98624000D01*
X166545562Y-98615505D01*
X166305451Y-98654605D01*
X166077582Y-98739798D01*
X166001148Y-98780652D01*
X165953841Y-99004236D01*
X159842052Y-99004236D01*
X159750269Y-98902412D01*
X159516920Y-98728359D01*
X159254099Y-98603175D01*
X159106890Y-98558524D01*
X158877000Y-98679845D01*
X158623000Y-98679845D01*
X158393110Y-98558524D01*
X158245901Y-98603175D01*
X157983080Y-98728359D01*
X157749731Y-98902412D01*
X157554822Y-99118645D01*
X157485195Y-99235534D01*
X157363475Y-99053368D01*
X157156632Y-98846525D01*
X156913411Y-98684010D01*
X156643158Y-98572068D01*
X156356260Y-98515000D01*
X156063740Y-98515000D01*
X155776842Y-98572068D01*
X155506589Y-98684010D01*
X155263368Y-98846525D01*
X155056525Y-99053368D01*
X154940000Y-99227760D01*
X154823475Y-99053368D01*
X154616632Y-98846525D01*
X154373411Y-98684010D01*
X154103158Y-98572068D01*
X153816260Y-98515000D01*
X153523740Y-98515000D01*
X153236842Y-98572068D01*
X152966589Y-98684010D01*
X152723368Y-98846525D01*
X152516525Y-99053368D01*
X152400000Y-99227760D01*
X152283475Y-99053368D01*
X152076632Y-98846525D01*
X151833411Y-98684010D01*
X151563158Y-98572068D01*
X151276260Y-98515000D01*
X150983740Y-98515000D01*
X150696842Y-98572068D01*
X150426589Y-98684010D01*
X150183368Y-98846525D01*
X149976525Y-99053368D01*
X149860000Y-99227760D01*
X149743475Y-99053368D01*
X149536632Y-98846525D01*
X149293411Y-98684010D01*
X149023158Y-98572068D01*
X148736260Y-98515000D01*
X148443740Y-98515000D01*
X148156842Y-98572068D01*
X147886589Y-98684010D01*
X147643368Y-98846525D01*
X147436525Y-99053368D01*
X147320000Y-99227760D01*
X147203475Y-99053368D01*
X146996632Y-98846525D01*
X146753411Y-98684010D01*
X146483158Y-98572068D01*
X146196260Y-98515000D01*
X145903740Y-98515000D01*
X145616842Y-98572068D01*
X145346589Y-98684010D01*
X145103368Y-98846525D01*
X144896525Y-99053368D01*
X144780000Y-99227760D01*
X144663475Y-99053368D01*
X144456632Y-98846525D01*
X144213411Y-98684010D01*
X143943158Y-98572068D01*
X143656260Y-98515000D01*
X143363740Y-98515000D01*
X143076842Y-98572068D01*
X142806589Y-98684010D01*
X142563368Y-98846525D01*
X142356525Y-99053368D01*
X142240000Y-99227760D01*
X142123475Y-99053368D01*
X141916632Y-98846525D01*
X141673411Y-98684010D01*
X141403158Y-98572068D01*
X141116260Y-98515000D01*
X140823740Y-98515000D01*
X140536842Y-98572068D01*
X140266589Y-98684010D01*
X140023368Y-98846525D01*
X139816525Y-99053368D01*
X139700000Y-99227760D01*
X139583475Y-99053368D01*
X139376632Y-98846525D01*
X139133411Y-98684010D01*
X138863158Y-98572068D01*
X138576260Y-98515000D01*
X138283740Y-98515000D01*
X137996842Y-98572068D01*
X137726589Y-98684010D01*
X137483368Y-98846525D01*
X137276525Y-99053368D01*
X137160000Y-99227760D01*
X137043475Y-99053368D01*
X136836632Y-98846525D01*
X136593411Y-98684010D01*
X136323158Y-98572068D01*
X136036260Y-98515000D01*
X135743740Y-98515000D01*
X135456842Y-98572068D01*
X135186589Y-98684010D01*
X134943368Y-98846525D01*
X134736525Y-99053368D01*
X134620000Y-99227760D01*
X134503475Y-99053368D01*
X134296632Y-98846525D01*
X134053411Y-98684010D01*
X133783158Y-98572068D01*
X133496260Y-98515000D01*
X133203740Y-98515000D01*
X132916842Y-98572068D01*
X132646589Y-98684010D01*
X132403368Y-98846525D01*
X132196525Y-99053368D01*
X132074805Y-99235534D01*
X132005178Y-99118645D01*
X131810269Y-98902412D01*
X131576920Y-98728359D01*
X131314099Y-98603175D01*
X131166890Y-98558524D01*
X130937000Y-98679845D01*
X130683000Y-98679845D01*
X130453110Y-98558524D01*
X130305901Y-98603175D01*
X130043080Y-98728359D01*
X129809731Y-98902412D01*
X129614822Y-99118645D01*
X129545195Y-99235534D01*
X129423475Y-99053368D01*
X129216632Y-98846525D01*
X128973411Y-98684010D01*
X128703158Y-98572068D01*
X128416260Y-98515000D01*
X128123740Y-98515000D01*
X127836842Y-98572068D01*
X127566589Y-98684010D01*
X127323368Y-98846525D01*
X127116525Y-99053368D01*
X127000000Y-99227760D01*
X126883475Y-99053368D01*
X126676632Y-98846525D01*
X126433411Y-98684010D01*
X126163158Y-98572068D01*
X125876260Y-98515000D01*
X125583740Y-98515000D01*
X125296842Y-98572068D01*
X125026589Y-98684010D01*
X124783368Y-98846525D01*
X124576525Y-99053368D01*
X124460000Y-99227760D01*
X124343475Y-99053368D01*
X124136632Y-98846525D01*
X123893411Y-98684010D01*
X123623158Y-98572068D01*
X123336260Y-98515000D01*
X123043740Y-98515000D01*
X122756842Y-98572068D01*
X122486589Y-98684010D01*
X122243368Y-98846525D01*
X122111513Y-98978380D01*
X122089502Y-98905820D01*
X122030537Y-98795506D01*
X121951185Y-98698815D01*
X121854494Y-98619463D01*
X121744180Y-98560498D01*
X121624482Y-98524188D01*
X121500000Y-98511928D01*
X120935750Y-98515000D01*
X120777000Y-98673750D01*
X120523000Y-98673750D01*
X120364250Y-98515000D01*
X119800000Y-98511928D01*
X119675518Y-98524188D01*
X119555820Y-98560498D01*
X119445506Y-98619463D01*
X119348815Y-98698815D01*
X119269463Y-98795506D01*
X119210498Y-98905820D01*
X119174188Y-99025518D01*
X119161928Y-99150000D01*
X118685000Y-99150000D01*
X118685000Y-97935000D01*
X169315000Y-97935000D01*
X169315001Y-114815000D01*
G37*
X169315001Y-114815000D02*
X118685000Y-114815000D01*
X118685000Y-112323764D01*
X138267841Y-112323764D01*
X138315148Y-112547348D01*
X138536516Y-112648237D01*
X138773313Y-112704000D01*
X139016438Y-112712495D01*
X139256549Y-112673395D01*
X139484418Y-112588202D01*
X139560852Y-112547348D01*
X139608159Y-112323764D01*
X138938000Y-111653605D01*
X138267841Y-112323764D01*
X118685000Y-112323764D01*
X118685000Y-111552438D01*
X137699505Y-111552438D01*
X137738605Y-111792549D01*
X137823798Y-112020418D01*
X137864652Y-112096852D01*
X138088236Y-112144159D01*
X138758395Y-111474000D01*
X139117605Y-111474000D01*
X139787764Y-112144159D01*
X140011348Y-112096852D01*
X140112237Y-111875484D01*
X140168000Y-111638687D01*
X140176495Y-111395562D01*
X140172747Y-111372544D01*
X146219000Y-111372544D01*
X146219000Y-111639456D01*
X146271072Y-111901239D01*
X146373215Y-112147833D01*
X146521503Y-112369762D01*
X146710238Y-112558497D01*
X146932167Y-112706785D01*
X147178761Y-112808928D01*
X147440544Y-112861000D01*
X147707456Y-112861000D01*
X147969239Y-112808928D01*
X148215833Y-112706785D01*
X148437762Y-112558497D01*
X148626497Y-112369762D01*
X148774785Y-112147833D01*
X148876928Y-111901239D01*
X148929000Y-111639456D01*
X148929000Y-111372544D01*
X148876928Y-111110761D01*
X148774785Y-110864167D01*
X148626497Y-110642238D01*
X148437762Y-110453503D01*
X148215833Y-110305215D01*
X147969239Y-110203072D01*
X147707456Y-110151000D01*
X147440544Y-110151000D01*
X147178761Y-110203072D01*
X146932167Y-110305215D01*
X146710238Y-110453503D01*
X146521503Y-110642238D01*
X146373215Y-110864167D01*
X146271072Y-111110761D01*
X146219000Y-111372544D01*
X140172747Y-111372544D01*
X140137395Y-111155451D01*
X140052202Y-110927582D01*
X140011348Y-110851148D01*
X139787764Y-110803841D01*
X139117605Y-111474000D01*
X138758395Y-111474000D01*
X138088236Y-110803841D01*
X137864652Y-110851148D01*
X137763763Y-111072516D01*
X137708000Y-111309313D01*
X137699505Y-111552438D01*
X118685000Y-111552438D01*
X118685000Y-109847413D01*
X120222192Y-109847413D01*
X120317956Y-110111814D01*
X120607571Y-110252704D01*
X120919108Y-110334384D01*
X121240595Y-110353718D01*
X121559675Y-110309961D01*
X121864088Y-110204795D01*
X122038044Y-110111814D01*
X122133808Y-109847413D01*
X121178000Y-108891605D01*
X120222192Y-109847413D01*
X118685000Y-109847413D01*
X118685000Y-108774595D01*
X119536282Y-108774595D01*
X119580039Y-109093675D01*
X119685205Y-109398088D01*
X119778186Y-109572044D01*
X120042587Y-109667808D01*
X120998395Y-108712000D01*
X121357605Y-108712000D01*
X122313413Y-109667808D01*
X122577814Y-109572044D01*
X122718704Y-109282429D01*
X122800384Y-108970892D01*
X122819718Y-108649405D01*
X122775961Y-108330325D01*
X122670795Y-108025912D01*
X122577814Y-107851956D01*
X122313413Y-107756192D01*
X121357605Y-108712000D01*
X120998395Y-108712000D01*
X120042587Y-107756192D01*
X119778186Y-107851956D01*
X119637296Y-108141571D01*
X119555616Y-108453108D01*
X119536282Y-108774595D01*
X118685000Y-108774595D01*
X118685000Y-107576587D01*
X120222192Y-107576587D01*
X121178000Y-108532395D01*
X121998395Y-107712000D01*
X127139928Y-107712000D01*
X127139928Y-109712000D01*
X127152188Y-109836482D01*
X127188498Y-109956180D01*
X127247463Y-110066494D01*
X127326815Y-110163185D01*
X127423506Y-110242537D01*
X127533820Y-110301502D01*
X127653518Y-110337812D01*
X127778000Y-110350072D01*
X129778000Y-110350072D01*
X129902482Y-110337812D01*
X130022180Y-110301502D01*
X130132494Y-110242537D01*
X130229185Y-110163185D01*
X130308537Y-110066494D01*
X130367502Y-109956180D01*
X130403812Y-109836482D01*
X130416072Y-109712000D01*
X130416072Y-109352363D01*
X137703000Y-109352363D01*
X137703000Y-109595637D01*
X137750460Y-109834236D01*
X137843557Y-110058992D01*
X137978713Y-110261267D01*
X138150733Y-110433287D01*
X138288733Y-110525496D01*
X138267841Y-110624236D01*
X138938000Y-111294395D01*
X139608159Y-110624236D01*
X139587267Y-110525496D01*
X139725267Y-110433287D01*
X139897287Y-110261267D01*
X140032443Y-110058992D01*
X140125540Y-109834236D01*
X140173000Y-109595637D01*
X140173000Y-109352363D01*
X140125540Y-109113764D01*
X140032443Y-108889008D01*
X139994715Y-108832544D01*
X143679000Y-108832544D01*
X143679000Y-109099456D01*
X143731072Y-109361239D01*
X143833215Y-109607833D01*
X143981503Y-109829762D01*
X144170238Y-110018497D01*
X144392167Y-110166785D01*
X144638761Y-110268928D01*
X144900544Y-110321000D01*
X145167456Y-110321000D01*
X145429239Y-110268928D01*
X145675833Y-110166785D01*
X145897762Y-110018497D01*
X146014699Y-109901560D01*
X149358045Y-109901560D01*
X149419932Y-110137368D01*
X149661790Y-110250266D01*
X149921027Y-110313811D01*
X150187680Y-110325561D01*
X150451501Y-110285063D01*
X150702353Y-110193875D01*
X150808068Y-110137368D01*
X150869955Y-109901560D01*
X150114000Y-109145605D01*
X149358045Y-109901560D01*
X146014699Y-109901560D01*
X146086497Y-109829762D01*
X146234785Y-109607833D01*
X146336928Y-109361239D01*
X146389000Y-109099456D01*
X146389000Y-109039680D01*
X148754439Y-109039680D01*
X148794937Y-109303501D01*
X148886125Y-109554353D01*
X148942632Y-109660068D01*
X149178440Y-109721955D01*
X149934395Y-108966000D01*
X150293605Y-108966000D01*
X151049560Y-109721955D01*
X151285368Y-109660068D01*
X151398266Y-109418210D01*
X151461811Y-109158973D01*
X151462999Y-109132000D01*
X153197928Y-109132000D01*
X153197928Y-110832000D01*
X153210188Y-110956482D01*
X153246498Y-111076180D01*
X153305463Y-111186494D01*
X153384815Y-111283185D01*
X153481506Y-111362537D01*
X153591820Y-111421502D01*
X153664380Y-111443513D01*
X153532525Y-111575368D01*
X153370010Y-111818589D01*
X153258068Y-112088842D01*
X153201000Y-112375740D01*
X153201000Y-112668260D01*
X153258068Y-112955158D01*
X153370010Y-113225411D01*
X153532525Y-113468632D01*
X153739368Y-113675475D01*
X153982589Y-113837990D01*
X154252842Y-113949932D01*
X154539740Y-114007000D01*
X154832260Y-114007000D01*
X155119158Y-113949932D01*
X155389411Y-113837990D01*
X155632632Y-113675475D01*
X155839475Y-113468632D01*
X155956000Y-113294240D01*
X156072525Y-113468632D01*
X156279368Y-113675475D01*
X156522589Y-113837990D01*
X156792842Y-113949932D01*
X157079740Y-114007000D01*
X157372260Y-114007000D01*
X157659158Y-113949932D01*
X157929411Y-113837990D01*
X158172632Y-113675475D01*
X158379475Y-113468632D01*
X158496000Y-113294240D01*
X158612525Y-113468632D01*
X158819368Y-113675475D01*
X159062589Y-113837990D01*
X159332842Y-113949932D01*
X159619740Y-114007000D01*
X159912260Y-114007000D01*
X160199158Y-113949932D01*
X160469411Y-113837990D01*
X160712632Y-113675475D01*
X160919475Y-113468632D01*
X161036000Y-113294240D01*
X161152525Y-113468632D01*
X161359368Y-113675475D01*
X161602589Y-113837990D01*
X161872842Y-113949932D01*
X162159740Y-114007000D01*
X162452260Y-114007000D01*
X162739158Y-113949932D01*
X163009411Y-113837990D01*
X163252632Y-113675475D01*
X163459475Y-113468632D01*
X163581195Y-113286466D01*
X163650822Y-113403355D01*
X163845731Y-113619588D01*
X164079080Y-113793641D01*
X164341901Y-113918825D01*
X164489110Y-113963476D01*
X164719000Y-113842155D01*
X164719000Y-112649000D01*
X164699000Y-112649000D01*
X164699000Y-112395000D01*
X164719000Y-112395000D01*
X164719000Y-112375000D01*
X164973000Y-112375000D01*
X164973000Y-112395000D01*
X164993000Y-112395000D01*
X164993000Y-112649000D01*
X164973000Y-112649000D01*
X164973000Y-113842155D01*
X165202890Y-113963476D01*
X165350099Y-113918825D01*
X165612920Y-113793641D01*
X165846269Y-113619588D01*
X166041178Y-113403355D01*
X166110805Y-113286466D01*
X166232525Y-113468632D01*
X166439368Y-113675475D01*
X166682589Y-113837990D01*
X166952842Y-113949932D01*
X167239740Y-114007000D01*
X167532260Y-114007000D01*
X167819158Y-113949932D01*
X168089411Y-113837990D01*
X168332632Y-113675475D01*
X168539475Y-113468632D01*
X168701990Y-113225411D01*
X168813932Y-112955158D01*
X168871000Y-112668260D01*
X168871000Y-112375740D01*
X168813932Y-112088842D01*
X168701990Y-111818589D01*
X168539475Y-111575368D01*
X168332632Y-111368525D01*
X168158240Y-111252000D01*
X168332632Y-111135475D01*
X168539475Y-110928632D01*
X168701990Y-110685411D01*
X168813932Y-110415158D01*
X168871000Y-110128260D01*
X168871000Y-109835740D01*
X168813932Y-109548842D01*
X168701990Y-109278589D01*
X168539475Y-109035368D01*
X168332632Y-108828525D01*
X168089411Y-108666010D01*
X167819158Y-108554068D01*
X167532260Y-108497000D01*
X167239740Y-108497000D01*
X166952842Y-108554068D01*
X166682589Y-108666010D01*
X166439368Y-108828525D01*
X166232525Y-109035368D01*
X166116000Y-109209760D01*
X165999475Y-109035368D01*
X165792632Y-108828525D01*
X165549411Y-108666010D01*
X165279158Y-108554068D01*
X164992260Y-108497000D01*
X164699740Y-108497000D01*
X164412842Y-108554068D01*
X164142589Y-108666010D01*
X163899368Y-108828525D01*
X163692525Y-109035368D01*
X163576000Y-109209760D01*
X163459475Y-109035368D01*
X163252632Y-108828525D01*
X163009411Y-108666010D01*
X162739158Y-108554068D01*
X162452260Y-108497000D01*
X162159740Y-108497000D01*
X161872842Y-108554068D01*
X161602589Y-108666010D01*
X161359368Y-108828525D01*
X161152525Y-109035368D01*
X161036000Y-109209760D01*
X160919475Y-109035368D01*
X160712632Y-108828525D01*
X160469411Y-108666010D01*
X160199158Y-108554068D01*
X159912260Y-108497000D01*
X159619740Y-108497000D01*
X159332842Y-108554068D01*
X159062589Y-108666010D01*
X158819368Y-108828525D01*
X158612525Y-109035368D01*
X158496000Y-109209760D01*
X158379475Y-109035368D01*
X158172632Y-108828525D01*
X157929411Y-108666010D01*
X157659158Y-108554068D01*
X157372260Y-108497000D01*
X157079740Y-108497000D01*
X156792842Y-108554068D01*
X156522589Y-108666010D01*
X156279368Y-108828525D01*
X156147513Y-108960380D01*
X156125502Y-108887820D01*
X156066537Y-108777506D01*
X155987185Y-108680815D01*
X155890494Y-108601463D01*
X155780180Y-108542498D01*
X155660482Y-108506188D01*
X155536000Y-108493928D01*
X153836000Y-108493928D01*
X153711518Y-108506188D01*
X153591820Y-108542498D01*
X153481506Y-108601463D01*
X153384815Y-108680815D01*
X153305463Y-108777506D01*
X153246498Y-108887820D01*
X153210188Y-109007518D01*
X153197928Y-109132000D01*
X151462999Y-109132000D01*
X151473561Y-108892320D01*
X151433063Y-108628499D01*
X151341875Y-108377647D01*
X151285368Y-108271932D01*
X151049560Y-108210045D01*
X150293605Y-108966000D01*
X149934395Y-108966000D01*
X149178440Y-108210045D01*
X148942632Y-108271932D01*
X148829734Y-108513790D01*
X148766189Y-108773027D01*
X148754439Y-109039680D01*
X146389000Y-109039680D01*
X146389000Y-108832544D01*
X146336928Y-108570761D01*
X146234785Y-108324167D01*
X146086497Y-108102238D01*
X146014699Y-108030440D01*
X149358045Y-108030440D01*
X150114000Y-108786395D01*
X150869955Y-108030440D01*
X150808068Y-107794632D01*
X150566210Y-107681734D01*
X150306973Y-107618189D01*
X150040320Y-107606439D01*
X149776499Y-107646937D01*
X149525647Y-107738125D01*
X149419932Y-107794632D01*
X149358045Y-108030440D01*
X146014699Y-108030440D01*
X145897762Y-107913503D01*
X145675833Y-107765215D01*
X145429239Y-107663072D01*
X145167456Y-107611000D01*
X144900544Y-107611000D01*
X144638761Y-107663072D01*
X144392167Y-107765215D01*
X144170238Y-107913503D01*
X143981503Y-108102238D01*
X143833215Y-108324167D01*
X143731072Y-108570761D01*
X143679000Y-108832544D01*
X139994715Y-108832544D01*
X139897287Y-108686733D01*
X139725267Y-108514713D01*
X139522992Y-108379557D01*
X139298236Y-108286460D01*
X139059637Y-108239000D01*
X138816363Y-108239000D01*
X138577764Y-108286460D01*
X138353008Y-108379557D01*
X138150733Y-108514713D01*
X137978713Y-108686733D01*
X137843557Y-108889008D01*
X137750460Y-109113764D01*
X137703000Y-109352363D01*
X130416072Y-109352363D01*
X130416072Y-107712000D01*
X130403812Y-107587518D01*
X130367502Y-107467820D01*
X130308537Y-107357506D01*
X130229185Y-107260815D01*
X130132494Y-107181463D01*
X130022180Y-107122498D01*
X129902482Y-107086188D01*
X129778000Y-107073928D01*
X127778000Y-107073928D01*
X127653518Y-107086188D01*
X127533820Y-107122498D01*
X127423506Y-107181463D01*
X127326815Y-107260815D01*
X127247463Y-107357506D01*
X127188498Y-107467820D01*
X127152188Y-107587518D01*
X127139928Y-107712000D01*
X121998395Y-107712000D01*
X122133808Y-107576587D01*
X122038044Y-107312186D01*
X121748429Y-107171296D01*
X121436892Y-107089616D01*
X121115405Y-107070282D01*
X120796325Y-107114039D01*
X120491912Y-107219205D01*
X120317956Y-107312186D01*
X120222192Y-107576587D01*
X118685000Y-107576587D01*
X118685000Y-101732363D01*
X165389000Y-101732363D01*
X165389000Y-101975637D01*
X165436460Y-102214236D01*
X165529557Y-102438992D01*
X165664713Y-102641267D01*
X165836733Y-102813287D01*
X166039008Y-102948443D01*
X166263764Y-103041540D01*
X166502363Y-103089000D01*
X166745637Y-103089000D01*
X166984236Y-103041540D01*
X167208992Y-102948443D01*
X167411267Y-102813287D01*
X167583287Y-102641267D01*
X167718443Y-102438992D01*
X167811540Y-102214236D01*
X167859000Y-101975637D01*
X167859000Y-101732363D01*
X167811540Y-101493764D01*
X167718443Y-101269008D01*
X167583287Y-101066733D01*
X167411267Y-100894713D01*
X167273267Y-100802504D01*
X167294159Y-100703764D01*
X166624000Y-100033605D01*
X165953841Y-100703764D01*
X165974733Y-100802504D01*
X165836733Y-100894713D01*
X165664713Y-101066733D01*
X165529557Y-101269008D01*
X165436460Y-101493764D01*
X165389000Y-101732363D01*
X118685000Y-101732363D01*
X118685000Y-100850000D01*
X119161928Y-100850000D01*
X119174188Y-100974482D01*
X119210498Y-101094180D01*
X119269463Y-101204494D01*
X119348815Y-101301185D01*
X119445506Y-101380537D01*
X119555820Y-101439502D01*
X119675518Y-101475812D01*
X119800000Y-101488072D01*
X120364250Y-101485000D01*
X120523000Y-101326250D01*
X120523000Y-100127000D01*
X119323750Y-100127000D01*
X119165000Y-100285750D01*
X119161928Y-100850000D01*
X118685000Y-100850000D01*
X118685000Y-99150000D01*
X119161928Y-99150000D01*
X119165000Y-99714250D01*
X119323750Y-99873000D01*
X120523000Y-99873000D01*
X120523000Y-98673750D01*
X120777000Y-98673750D01*
X120777000Y-99873000D01*
X120797000Y-99873000D01*
X120797000Y-100127000D01*
X120777000Y-100127000D01*
X120777000Y-101326250D01*
X120935750Y-101485000D01*
X121500000Y-101488072D01*
X121624482Y-101475812D01*
X121744180Y-101439502D01*
X121854494Y-101380537D01*
X121951185Y-101301185D01*
X122030537Y-101204494D01*
X122089502Y-101094180D01*
X122111513Y-101021620D01*
X122243368Y-101153475D01*
X122486589Y-101315990D01*
X122756842Y-101427932D01*
X123043740Y-101485000D01*
X123336260Y-101485000D01*
X123623158Y-101427932D01*
X123893411Y-101315990D01*
X124136632Y-101153475D01*
X124343475Y-100946632D01*
X124460000Y-100772240D01*
X124576525Y-100946632D01*
X124783368Y-101153475D01*
X125026589Y-101315990D01*
X125296842Y-101427932D01*
X125583740Y-101485000D01*
X125876260Y-101485000D01*
X126163158Y-101427932D01*
X126433411Y-101315990D01*
X126676632Y-101153475D01*
X126883475Y-100946632D01*
X127000000Y-100772240D01*
X127116525Y-100946632D01*
X127323368Y-101153475D01*
X127566589Y-101315990D01*
X127836842Y-101427932D01*
X128123740Y-101485000D01*
X128416260Y-101485000D01*
X128703158Y-101427932D01*
X128973411Y-101315990D01*
X129216632Y-101153475D01*
X129423475Y-100946632D01*
X129545195Y-100764466D01*
X129614822Y-100881355D01*
X129809731Y-101097588D01*
X130043080Y-101271641D01*
X130305901Y-101396825D01*
X130453110Y-101441476D01*
X130683000Y-101320155D01*
X130683000Y-100127000D01*
X130663000Y-100127000D01*
X130663000Y-99873000D01*
X130683000Y-99873000D01*
X130683000Y-98679845D01*
X130937000Y-98679845D01*
X130937000Y-99873000D01*
X130957000Y-99873000D01*
X130957000Y-100127000D01*
X130937000Y-100127000D01*
X130937000Y-101320155D01*
X131166890Y-101441476D01*
X131314099Y-101396825D01*
X131576920Y-101271641D01*
X131810269Y-101097588D01*
X132005178Y-100881355D01*
X132074805Y-100764466D01*
X132196525Y-100946632D01*
X132403368Y-101153475D01*
X132646589Y-101315990D01*
X132916842Y-101427932D01*
X133203740Y-101485000D01*
X133496260Y-101485000D01*
X133783158Y-101427932D01*
X134053411Y-101315990D01*
X134296632Y-101153475D01*
X134503475Y-100946632D01*
X134620000Y-100772240D01*
X134736525Y-100946632D01*
X134943368Y-101153475D01*
X135186589Y-101315990D01*
X135456842Y-101427932D01*
X135743740Y-101485000D01*
X136036260Y-101485000D01*
X136323158Y-101427932D01*
X136593411Y-101315990D01*
X136836632Y-101153475D01*
X137043475Y-100946632D01*
X137160000Y-100772240D01*
X137276525Y-100946632D01*
X137483368Y-101153475D01*
X137726589Y-101315990D01*
X137996842Y-101427932D01*
X138283740Y-101485000D01*
X138576260Y-101485000D01*
X138863158Y-101427932D01*
X139133411Y-101315990D01*
X139376632Y-101153475D01*
X139583475Y-100946632D01*
X139700000Y-100772240D01*
X139816525Y-100946632D01*
X140023368Y-101153475D01*
X140266589Y-101315990D01*
X140536842Y-101427932D01*
X140823740Y-101485000D01*
X141116260Y-101485000D01*
X141403158Y-101427932D01*
X141673411Y-101315990D01*
X141916632Y-101153475D01*
X142123475Y-100946632D01*
X142240000Y-100772240D01*
X142356525Y-100946632D01*
X142563368Y-101153475D01*
X142806589Y-101315990D01*
X143076842Y-101427932D01*
X143363740Y-101485000D01*
X143656260Y-101485000D01*
X143943158Y-101427932D01*
X144213411Y-101315990D01*
X144456632Y-101153475D01*
X144663475Y-100946632D01*
X144780000Y-100772240D01*
X144896525Y-100946632D01*
X145103368Y-101153475D01*
X145346589Y-101315990D01*
X145616842Y-101427932D01*
X145903740Y-101485000D01*
X146196260Y-101485000D01*
X146483158Y-101427932D01*
X146753411Y-101315990D01*
X146996632Y-101153475D01*
X147203475Y-100946632D01*
X147320000Y-100772240D01*
X147436525Y-100946632D01*
X147643368Y-101153475D01*
X147886589Y-101315990D01*
X148156842Y-101427932D01*
X148443740Y-101485000D01*
X148736260Y-101485000D01*
X149023158Y-101427932D01*
X149293411Y-101315990D01*
X149536632Y-101153475D01*
X149743475Y-100946632D01*
X149860000Y-100772240D01*
X149976525Y-100946632D01*
X150183368Y-101153475D01*
X150426589Y-101315990D01*
X150696842Y-101427932D01*
X150983740Y-101485000D01*
X151276260Y-101485000D01*
X151563158Y-101427932D01*
X151833411Y-101315990D01*
X152076632Y-101153475D01*
X152283475Y-100946632D01*
X152400000Y-100772240D01*
X152516525Y-100946632D01*
X152723368Y-101153475D01*
X152966589Y-101315990D01*
X153236842Y-101427932D01*
X153523740Y-101485000D01*
X153816260Y-101485000D01*
X154103158Y-101427932D01*
X154373411Y-101315990D01*
X154616632Y-101153475D01*
X154823475Y-100946632D01*
X154940000Y-100772240D01*
X155056525Y-100946632D01*
X155263368Y-101153475D01*
X155506589Y-101315990D01*
X155776842Y-101427932D01*
X156063740Y-101485000D01*
X156356260Y-101485000D01*
X156643158Y-101427932D01*
X156913411Y-101315990D01*
X157156632Y-101153475D01*
X157363475Y-100946632D01*
X157485195Y-100764466D01*
X157554822Y-100881355D01*
X157749731Y-101097588D01*
X157983080Y-101271641D01*
X158245901Y-101396825D01*
X158393110Y-101441476D01*
X158623000Y-101320155D01*
X158623000Y-100127000D01*
X158877000Y-100127000D01*
X158877000Y-101320155D01*
X159106890Y-101441476D01*
X159254099Y-101396825D01*
X159516920Y-101271641D01*
X159750269Y-101097588D01*
X159945178Y-100881355D01*
X160094157Y-100631252D01*
X160191481Y-100356891D01*
X160070814Y-100127000D01*
X158877000Y-100127000D01*
X158623000Y-100127000D01*
X158603000Y-100127000D01*
X158603000Y-99932438D01*
X165385505Y-99932438D01*
X165424605Y-100172549D01*
X165509798Y-100400418D01*
X165550652Y-100476852D01*
X165774236Y-100524159D01*
X166444395Y-99854000D01*
X166803605Y-99854000D01*
X167473764Y-100524159D01*
X167697348Y-100476852D01*
X167798237Y-100255484D01*
X167854000Y-100018687D01*
X167862495Y-99775562D01*
X167823395Y-99535451D01*
X167738202Y-99307582D01*
X167697348Y-99231148D01*
X167473764Y-99183841D01*
X166803605Y-99854000D01*
X166444395Y-99854000D01*
X165774236Y-99183841D01*
X165550652Y-99231148D01*
X165449763Y-99452516D01*
X165394000Y-99689313D01*
X165385505Y-99932438D01*
X158603000Y-99932438D01*
X158603000Y-99873000D01*
X158623000Y-99873000D01*
X158623000Y-98679845D01*
X158877000Y-98679845D01*
X158877000Y-99873000D01*
X160070814Y-99873000D01*
X160191481Y-99643109D01*
X160094157Y-99368748D01*
X159945178Y-99118645D01*
X159842052Y-99004236D01*
X165953841Y-99004236D01*
X166624000Y-99674395D01*
X167294159Y-99004236D01*
X167246852Y-98780652D01*
X167025484Y-98679763D01*
X166788687Y-98624000D01*
X166545562Y-98615505D01*
X166305451Y-98654605D01*
X166077582Y-98739798D01*
X166001148Y-98780652D01*
X165953841Y-99004236D01*
X159842052Y-99004236D01*
X159750269Y-98902412D01*
X159516920Y-98728359D01*
X159254099Y-98603175D01*
X159106890Y-98558524D01*
X158877000Y-98679845D01*
X158623000Y-98679845D01*
X158393110Y-98558524D01*
X158245901Y-98603175D01*
X157983080Y-98728359D01*
X157749731Y-98902412D01*
X157554822Y-99118645D01*
X157485195Y-99235534D01*
X157363475Y-99053368D01*
X157156632Y-98846525D01*
X156913411Y-98684010D01*
X156643158Y-98572068D01*
X156356260Y-98515000D01*
X156063740Y-98515000D01*
X155776842Y-98572068D01*
X155506589Y-98684010D01*
X155263368Y-98846525D01*
X155056525Y-99053368D01*
X154940000Y-99227760D01*
X154823475Y-99053368D01*
X154616632Y-98846525D01*
X154373411Y-98684010D01*
X154103158Y-98572068D01*
X153816260Y-98515000D01*
X153523740Y-98515000D01*
X153236842Y-98572068D01*
X152966589Y-98684010D01*
X152723368Y-98846525D01*
X152516525Y-99053368D01*
X152400000Y-99227760D01*
X152283475Y-99053368D01*
X152076632Y-98846525D01*
X151833411Y-98684010D01*
X151563158Y-98572068D01*
X151276260Y-98515000D01*
X150983740Y-98515000D01*
X150696842Y-98572068D01*
X150426589Y-98684010D01*
X150183368Y-98846525D01*
X149976525Y-99053368D01*
X149860000Y-99227760D01*
X149743475Y-99053368D01*
X149536632Y-98846525D01*
X149293411Y-98684010D01*
X149023158Y-98572068D01*
X148736260Y-98515000D01*
X148443740Y-98515000D01*
X148156842Y-98572068D01*
X147886589Y-98684010D01*
X147643368Y-98846525D01*
X147436525Y-99053368D01*
X147320000Y-99227760D01*
X147203475Y-99053368D01*
X146996632Y-98846525D01*
X146753411Y-98684010D01*
X146483158Y-98572068D01*
X146196260Y-98515000D01*
X145903740Y-98515000D01*
X145616842Y-98572068D01*
X145346589Y-98684010D01*
X145103368Y-98846525D01*
X144896525Y-99053368D01*
X144780000Y-99227760D01*
X144663475Y-99053368D01*
X144456632Y-98846525D01*
X144213411Y-98684010D01*
X143943158Y-98572068D01*
X143656260Y-98515000D01*
X143363740Y-98515000D01*
X143076842Y-98572068D01*
X142806589Y-98684010D01*
X142563368Y-98846525D01*
X142356525Y-99053368D01*
X142240000Y-99227760D01*
X142123475Y-99053368D01*
X141916632Y-98846525D01*
X141673411Y-98684010D01*
X141403158Y-98572068D01*
X141116260Y-98515000D01*
X140823740Y-98515000D01*
X140536842Y-98572068D01*
X140266589Y-98684010D01*
X140023368Y-98846525D01*
X139816525Y-99053368D01*
X139700000Y-99227760D01*
X139583475Y-99053368D01*
X139376632Y-98846525D01*
X139133411Y-98684010D01*
X138863158Y-98572068D01*
X138576260Y-98515000D01*
X138283740Y-98515000D01*
X137996842Y-98572068D01*
X137726589Y-98684010D01*
X137483368Y-98846525D01*
X137276525Y-99053368D01*
X137160000Y-99227760D01*
X137043475Y-99053368D01*
X136836632Y-98846525D01*
X136593411Y-98684010D01*
X136323158Y-98572068D01*
X136036260Y-98515000D01*
X135743740Y-98515000D01*
X135456842Y-98572068D01*
X135186589Y-98684010D01*
X134943368Y-98846525D01*
X134736525Y-99053368D01*
X134620000Y-99227760D01*
X134503475Y-99053368D01*
X134296632Y-98846525D01*
X134053411Y-98684010D01*
X133783158Y-98572068D01*
X133496260Y-98515000D01*
X133203740Y-98515000D01*
X132916842Y-98572068D01*
X132646589Y-98684010D01*
X132403368Y-98846525D01*
X132196525Y-99053368D01*
X132074805Y-99235534D01*
X132005178Y-99118645D01*
X131810269Y-98902412D01*
X131576920Y-98728359D01*
X131314099Y-98603175D01*
X131166890Y-98558524D01*
X130937000Y-98679845D01*
X130683000Y-98679845D01*
X130453110Y-98558524D01*
X130305901Y-98603175D01*
X130043080Y-98728359D01*
X129809731Y-98902412D01*
X129614822Y-99118645D01*
X129545195Y-99235534D01*
X129423475Y-99053368D01*
X129216632Y-98846525D01*
X128973411Y-98684010D01*
X128703158Y-98572068D01*
X128416260Y-98515000D01*
X128123740Y-98515000D01*
X127836842Y-98572068D01*
X127566589Y-98684010D01*
X127323368Y-98846525D01*
X127116525Y-99053368D01*
X127000000Y-99227760D01*
X126883475Y-99053368D01*
X126676632Y-98846525D01*
X126433411Y-98684010D01*
X126163158Y-98572068D01*
X125876260Y-98515000D01*
X125583740Y-98515000D01*
X125296842Y-98572068D01*
X125026589Y-98684010D01*
X124783368Y-98846525D01*
X124576525Y-99053368D01*
X124460000Y-99227760D01*
X124343475Y-99053368D01*
X124136632Y-98846525D01*
X123893411Y-98684010D01*
X123623158Y-98572068D01*
X123336260Y-98515000D01*
X123043740Y-98515000D01*
X122756842Y-98572068D01*
X122486589Y-98684010D01*
X122243368Y-98846525D01*
X122111513Y-98978380D01*
X122089502Y-98905820D01*
X122030537Y-98795506D01*
X121951185Y-98698815D01*
X121854494Y-98619463D01*
X121744180Y-98560498D01*
X121624482Y-98524188D01*
X121500000Y-98511928D01*
X120935750Y-98515000D01*
X120777000Y-98673750D01*
X120523000Y-98673750D01*
X120364250Y-98515000D01*
X119800000Y-98511928D01*
X119675518Y-98524188D01*
X119555820Y-98560498D01*
X119445506Y-98619463D01*
X119348815Y-98698815D01*
X119269463Y-98795506D01*
X119210498Y-98905820D01*
X119174188Y-99025518D01*
X119161928Y-99150000D01*
X118685000Y-99150000D01*
X118685000Y-97935000D01*
X169315000Y-97935000D01*
X169315001Y-114815000D01*
M02*
