M48
; DRILL file {KiCad 5.1.5+dfsg1-2build2} date Fri 27 Nov 2020 09:41:45 PM EST
; FORMAT={-:-/ absolute / metric / decimal}
; #@! TF.CreationDate,2020-11-27T21:41:45-05:00
; #@! TF.GenerationSoftware,Kicad,Pcbnew,5.1.5+dfsg1-2build2
; #@! TF.FileFunction,Plated,1,2,PTH
FMAT,2
METRIC
T1C0.300
T2C0.600
T3C0.762
T4C0.800
T5C0.900
T6C1.000
T7C1.100
T8C1.200
T9C1.520
%
G90
G05
T1
X106.064Y-72.202
X110.064Y-132.971
X110.191Y-107.254
X110.255Y-57.851
X110.89Y-104.777
X111.398Y-102.301
X111.696Y-133.904
X112.033Y-99.761
X112.35Y-136.909
X112.858Y-97.157
X113.107Y-127.273
X113.366Y-141.862
X113.43Y-94.617
X114.042Y-92.204
X114.065Y-139.448
X114.319Y-89.791
X114.596Y-86.807
X114.763Y-137.416
X114.873Y-84.457
X115.081Y-135.13
X115.15Y-81.636
X115.652Y-131.956
X116.224Y-129.796
X116.287Y-113.032
X116.922Y-127.002
X117.101Y-124.399
X117.811Y-79.377
X118.447Y-125.034
X119.374Y-148.021
X121.069Y-97.348
X121.24Y-143.258
X121.304Y-110.429
X121.851Y-109.887
X121.87Y-99.634
X122.002Y-147.195
X122.187Y-102.111
X122.371Y-71.669
X122.51Y-144.401
X122.655Y-135.829
X123.018Y-70.678
X123.272Y-95.951
X126.066Y-60.328
X127.463Y-78.87
X127.654Y-142.814
X127.844Y-137.734
X128.67Y-99.761
X129.172Y-111.254
X129.432Y-64.138
X129.876Y-93.665
X129.94Y-97.729
X130.067Y-101.031
X130.13Y-116.207
X130.15Y-118.75
X130.892Y-129.415
X131.273Y-80.838
X131.654Y-66.106
X132.032Y-65.443
X132.284Y-126.304
X132.475Y-81.854
X132.543Y-80.013
X132.561Y-124.972
X132.803Y-64.755
X132.838Y-121.097
X132.838Y-124.244
X132.855Y-82.9
X132.907Y-125.669
X133.115Y-122.621
X133.132Y-84.14
X133.287Y-123.673
X133.409Y-85.346
X133.446Y-64.415
X133.583Y-67.82
X133.686Y-86.68
X133.86Y-67.024
X133.946Y-126.842
X133.963Y-87.861
X134.377Y-66.222
X134.385Y-89.093
X134.639Y-127.32
X135.033Y-65.644
X135.083Y-90.236
X137.814Y-127.066
X137.941Y-116.779
X138.449Y-63.982
X139.846Y-105.158
X139.87Y-137.226
X140.671Y-141.671
X140.741Y-102.595
X141.116Y-140.591
X141.243Y-100.055
X142.64Y-112.334
X142.85Y-119.8
X143.021Y-109.286
X144.037Y-104.206
X144.418Y-132.902
X145.053Y-97.729
X146.196Y-112.334
X146.704Y-61.534
X146.831Y-77.409
X147.65Y-130.15
X149.498Y-80.965
X149.498Y-101.285
X151.271Y-99.825
X151.466Y-81.663
X151.548Y-102.618
X151.825Y-105.095
X152.038Y-83.06
X152.35Y-61.5
X152.356Y-84.331
X152.633Y-107.698
X152.99Y-85.6
X153.181Y-106.619
X153.435Y-110.302
X153.5Y-77.4
X153.625Y-87.061
X153.689Y-105.984
X153.816Y-88.204
X153.943Y-92.649
X154.07Y-98.745
X154.197Y-89.41
X154.641Y-102.555
X154.768Y-90.426
X157.499Y-120.335
X158.769Y-105.349
X158.769Y-108.905
X162.04Y-77.42
X163.722Y-127.447
X166.25Y-135.65
X167.544Y-131.771
X171.826Y-134.158
X172.448Y-134.535
X173.25Y-135.05
X173.5Y-121.55
X173.748Y-122.373
X174.548Y-122.779
X175.2Y-128.35
X175.648Y-127.192
X175.747Y-72.65
X175.995Y-62.279
X176.3Y-130.302
X176.342Y-70.927
X177.057Y-133.543
X177.438Y-66.614
X177.438Y-131.765
X177.819Y-128.844
X177.922Y-61.982
X178.327Y-70.043
X179.85Y-61.35
X180.994Y-107.381
X181.041Y-106.551
X181.473Y-105.727
X182.442Y-105.182
X182.899Y-104.333
X189.63Y-114.366
X191.154Y-124.78
X192.678Y-132.654
T2
X188.423Y-82.362
X188.423Y-84.362
X199.644Y-70.898
X199.644Y-72.898
X129.432Y-148.275
X131.432Y-148.275
X195.993Y-141.478
X197.993Y-141.478
X195.993Y-108.966
X197.993Y-108.966
X156.337Y-141.351
X158.337Y-141.351
T3
X187.384Y-68.709
X189.884Y-68.709
X192.384Y-68.709
T4
X180.994Y-118.43
X180.994Y-120.97
X180.994Y-123.51
X180.994Y-126.05
X180.994Y-128.59
X180.994Y-131.13
X183.534Y-115.89
X183.534Y-118.43
X183.534Y-120.97
X183.534Y-123.51
X183.534Y-126.05
X183.534Y-128.59
X183.534Y-131.13
X183.534Y-133.67
X186.074Y-115.89
X186.074Y-118.43
X186.074Y-131.13
X186.074Y-133.67
X188.614Y-115.89
X188.614Y-118.43
X188.614Y-131.13
X188.614Y-133.67
X191.154Y-115.89
X191.154Y-118.43
X191.154Y-131.13
X191.154Y-133.67
X193.694Y-115.89
X193.694Y-118.43
X193.694Y-131.13
X193.694Y-133.67
X196.234Y-115.89
X196.234Y-118.43
X196.234Y-120.97
X196.234Y-123.51
X196.234Y-126.05
X196.234Y-128.59
X196.234Y-131.13
X196.234Y-133.67
X198.774Y-118.43
X198.774Y-120.97
X198.774Y-123.51
X198.774Y-126.05
X198.774Y-128.59
X198.774Y-131.13
X108.76Y-113.98
X108.76Y-116.52
X108.76Y-119.06
X108.76Y-121.6
X108.76Y-124.14
X108.76Y-126.68
X108.76Y-129.22
X108.76Y-131.76
X108.76Y-134.3
X108.76Y-136.84
X108.76Y-139.38
X108.76Y-141.92
X108.76Y-144.46
X108.76Y-147.0
X124.0Y-113.98
X124.0Y-116.52
X124.0Y-119.06
X124.0Y-121.6
X124.0Y-124.14
X124.0Y-126.68
X124.0Y-129.22
X124.0Y-131.76
X124.0Y-134.3
X124.0Y-136.84
X124.0Y-139.38
X124.0Y-141.92
X124.0Y-144.46
X124.0Y-147.0
X153.562Y-118.43
X153.562Y-120.97
X153.562Y-123.51
X153.562Y-126.05
X153.562Y-128.59
X153.562Y-131.13
X156.102Y-115.89
X156.102Y-118.43
X156.102Y-120.97
X156.102Y-123.51
X156.102Y-126.05
X156.102Y-128.59
X156.102Y-131.13
X156.102Y-133.67
X158.642Y-115.89
X158.642Y-118.43
X158.642Y-131.13
X158.642Y-133.67
X161.182Y-115.89
X161.182Y-118.43
X161.182Y-131.13
X161.182Y-133.67
X163.722Y-115.89
X163.722Y-118.43
X163.722Y-131.13
X163.722Y-133.67
X166.262Y-115.89
X166.262Y-118.43
X166.262Y-131.13
X166.262Y-133.67
X168.802Y-115.89
X168.802Y-118.43
X168.802Y-120.97
X168.802Y-123.51
X168.802Y-126.05
X168.802Y-128.59
X168.802Y-131.13
X168.802Y-133.67
X171.342Y-118.43
X171.342Y-120.97
X171.342Y-123.51
X171.342Y-126.05
X171.342Y-128.59
X171.342Y-131.13
X109.0Y-59.0
X109.0Y-61.54
X109.0Y-64.08
X109.0Y-66.62
X109.0Y-69.16
X109.0Y-71.7
X109.0Y-74.24
X109.0Y-76.78
X109.0Y-79.32
X109.0Y-81.86
X109.0Y-84.4
X109.0Y-86.94
X109.0Y-89.48
X109.0Y-92.02
X109.0Y-94.56
X109.0Y-97.1
X109.0Y-99.64
X109.0Y-102.18
X109.0Y-104.72
X109.0Y-107.26
X124.24Y-59.0
X124.24Y-61.54
X124.24Y-64.08
X124.24Y-66.62
X124.24Y-69.16
X124.24Y-71.7
X124.24Y-74.24
X124.24Y-76.78
X124.24Y-79.32
X124.24Y-81.86
X124.24Y-84.4
X124.24Y-86.94
X124.24Y-89.48
X124.24Y-92.02
X124.24Y-94.56
X124.24Y-97.1
X124.24Y-99.64
X124.24Y-102.18
X124.24Y-104.72
X124.24Y-107.26
X166.76Y-58.44
X166.76Y-60.98
X166.76Y-63.52
X166.76Y-66.06
X166.76Y-68.6
X166.76Y-71.14
X166.76Y-73.68
X166.76Y-76.22
X166.76Y-78.76
X166.76Y-81.3
X166.76Y-83.84
X166.76Y-86.38
X166.76Y-88.92
X166.76Y-91.46
X166.76Y-94.0
X182.0Y-58.44
X182.0Y-60.98
X182.0Y-63.52
X182.0Y-66.06
X182.0Y-68.6
X182.0Y-71.14
X182.0Y-73.68
X182.0Y-76.22
X182.0Y-78.76
X182.0Y-81.3
X182.0Y-83.84
X182.0Y-86.38
X182.0Y-88.92
X182.0Y-91.46
X182.0Y-94.0
X130.81Y-69.85
X138.43Y-69.85
T5
X188.614Y-93.538
X188.614Y-96.078
T6
X185.547Y-146.812
X185.547Y-149.352
X188.087Y-146.812
X188.087Y-149.352
X190.627Y-146.812
X190.627Y-149.352
X193.167Y-146.812
X193.167Y-149.352
X195.707Y-146.812
X195.707Y-149.352
X198.247Y-146.812
X198.247Y-149.352
X161.29Y-105.41
X163.83Y-105.41
X166.37Y-105.41
X168.91Y-105.41
X171.45Y-105.41
X173.99Y-105.41
X185.547Y-101.6
X185.547Y-104.14
X188.087Y-101.6
X188.087Y-104.14
X190.627Y-101.6
X190.627Y-104.14
X193.167Y-101.6
X193.167Y-104.14
X195.707Y-101.6
X195.707Y-104.14
X198.247Y-101.6
X198.247Y-104.14
X146.05Y-146.812
X146.05Y-149.352
X148.59Y-146.812
X148.59Y-149.352
X151.13Y-146.812
X151.13Y-149.352
X153.67Y-146.812
X153.67Y-149.352
X156.21Y-146.812
X156.21Y-149.352
X158.75Y-146.812
X158.75Y-149.352
X154.94Y-58.166
X154.94Y-60.706
X157.48Y-58.166
X157.48Y-60.706
X178.962Y-110.302
X184.042Y-110.302
X147.701Y-115.443
X147.701Y-120.523
T7
X130.5Y-58.5
X130.5Y-63.0
X137.0Y-58.5
X137.0Y-63.0
T8
X195.281Y-77.853
X197.821Y-77.853
X200.361Y-77.853
T9
X193.504Y-60.264
X198.583Y-60.264
T0
M30
